<svg xmlns="http://www.w3.org/2000/svg" width="327.256" height="326.293" viewBox="0 0 327.256 326.293">
  <g id="Grupo_111" data-name="Grupo 111" transform="translate(-5984.708 -4760.595)">
    <g id="Grupo_106" data-name="Grupo 106">
      <path id="Caminho_299" data-name="Caminho 299" d="M6047.434,4820.591a18.754,18.754,0,0,1,5.4-3.917,14.441,14.441,0,0,1,5.542-1.378,12.292,12.292,0,0,1,5.371,1.028,15.71,15.71,0,0,1,4.846,3.347,18.114,18.114,0,0,1,3.446,4.71,12.037,12.037,0,0,1,1.289,5.542,14.983,14.983,0,0,1-1.538,6.242,25.1,25.1,0,0,1-5.076,6.856l-11.81,11.89-34.375-34.138,9.056-9.119a42.708,42.708,0,0,1,5.33-4.652,14.251,14.251,0,0,1,4.647-2.31,7.115,7.115,0,0,1,4.21.141,11.062,11.062,0,0,1,4.019,2.7,7.877,7.877,0,0,1,2.106,3.244,7.791,7.791,0,0,1,.277,3.3,10.79,10.79,0,0,1-1.013,3.3,22.619,22.619,0,0,1-1.859,3.17ZM6062,4846.066a35.345,35.345,0,0,0,3.97-4.758,15.6,15.6,0,0,0,2.41-5.243,11.077,11.077,0,0,0-.109-5.568,13.018,13.018,0,0,0-3.627-5.69,15.37,15.37,0,0,0-5.18-3.59,10.84,10.84,0,0,0-9.376.589,16.57,16.57,0,0,0-3.755,2.842,16.179,16.179,0,0,0-2.572,3.305,11.583,11.583,0,0,0-1.324,3.347,7.037,7.037,0,0,0-.012,3.1,5.128,5.128,0,0,0,1.411,2.512l13.725,13.63Zm-17.94-34.774a10.593,10.593,0,0,0-2.769-2,6.786,6.786,0,0,0-3.254-.7,9.1,9.1,0,0,0-3.783,1.082,17.517,17.517,0,0,0-4.354,3.356l-5.016,5.052,15.779,15.671a21.184,21.184,0,0,1,1.187-4.682q.837-2.186,1.722-4.194t1.658-3.814a13.88,13.88,0,0,0,1.012-3.478,7.594,7.594,0,0,0-.212-3.229A7.242,7.242,0,0,0,6044.061,4811.292Z" fill="#e05555"/>
      <path id="Caminho_300" data-name="Caminho 300" d="M6104.38,4796.642a25.9,25.9,0,0,1,3.619,2.665q1.806,1.572,3.838,3.358t4.285,3.617a39.677,39.677,0,0,0,4.908,3.394,42.484,42.484,0,0,0,5.756,2.806,29.276,29.276,0,0,0,6.793,1.766l-.339,1.162a52.949,52.949,0,0,1-8.087-.857,33.69,33.69,0,0,1-6.978-2.133,38.542,38.542,0,0,1-6.436-3.547,64.9,64.9,0,0,1-6.441-5.045,23.372,23.372,0,0,0-4.633-3.3,12.393,12.393,0,0,0-4.407-1.352,14.847,14.847,0,0,0-4.683.295,42.06,42.06,0,0,0-5.458,1.636l-2.8,1.153,8.5,20.619-4.6,1.9-18.463-44.791,11.649-4.8q1.689-.7,3.781-1.491a33.247,33.247,0,0,1,4.333-1.308,23.526,23.526,0,0,1,4.562-.586,12.558,12.558,0,0,1,4.417.632,10.612,10.612,0,0,1,3.868,2.358,13.018,13.018,0,0,1,3,4.625,10.569,10.569,0,0,1,.824,4.975,12,12,0,0,1-1.355,4.647,15.214,15.214,0,0,1-3.088,4,19.542,19.542,0,0,1-4.291,3.063,12.141,12.141,0,0,1,3.936-.7A7.761,7.761,0,0,1,6104.38,4796.642Zm-22.667,1.712a4.185,4.185,0,0,0,.792,1.342,1.536,1.536,0,0,0,.911.477,2.44,2.44,0,0,0,1.128-.158c.416-.148.875-.327,1.381-.536a45.139,45.139,0,0,0,9.325-4.9,16.309,16.309,0,0,0,4.578-4.681,7.609,7.609,0,0,0,1.141-4.422,13.583,13.583,0,0,0-.984-4.126,11.73,11.73,0,0,0-3.558-5.075,9.552,9.552,0,0,0-4.594-1.889,14.152,14.152,0,0,0-5.168.359,37.763,37.763,0,0,0-5.311,1.746q-2.038.841-3.883,1.737t-3.394,1.6Z" fill="#e05555"/>
      <path id="Caminho_301" data-name="Caminho 301" d="M6136.717,4807.279q6.174-.123,11.466-.627t9.262-1.068q4.6-.691,8.442-1.573v4.977l-34.146-.009.013-48.384,34.146.01v4.976q-3.843-.882-8.442-1.577-3.969-.63-9.26-1.137t-11.467-.57l-.006,22.113a7.4,7.4,0,0,1,2.648-2.992,8.2,8.2,0,0,1,4.6-1.163,10.852,10.852,0,0,1,1.606.126q.85.127,1.732.315,1.7.38,2.993.788t2.331.757q1.039.346,1.89.568a6.409,6.409,0,0,0,1.606.221,4.72,4.72,0,0,0,1.89-.409,10.121,10.121,0,0,0,2.143-1.354l.692.567a18.591,18.591,0,0,1-3.718,3.149,8.646,8.646,0,0,1-4.85,1.448,6.912,6.912,0,0,1-2.521-.442q-3.024-.883-5.1-1.482a13.446,13.446,0,0,0-3.654-.6,4.424,4.424,0,0,0-2.9,1.038,3.758,3.758,0,0,0-1.386,2.74Z" fill="#e05555"/>
      <path id="Caminho_302" data-name="Caminho 302" d="M6207.9,4806.645a1.323,1.323,0,0,0-.484-1.03,3.8,3.8,0,0,0-1-.633,5.924,5.924,0,0,0-1.178-.369c-.4-.079-.771-.147-1.113-.2a8.014,8.014,0,0,0-1.158-.017l-6.9.263a13.905,13.905,0,0,1-6.138-.713,3.989,3.989,0,0,1-2.588-4.194q-1.523,1.953-2.756,3.548t-2.321,3.015q-1.088,1.42-2.01,2.771t-1.908,2.85l-5.211-2.235,38.58-36.1.695.3.5,52.86-4.864-2.085Zm-.111-26.918q-3.459,3.109-6.573,6.058t-5.663,5.454q-2.552,2.507-4.41,4.45t-2.814,3.044a.854.854,0,0,0,.017,1,1.588,1.588,0,0,0,.934.777,2.731,2.731,0,0,0,.943.2q.537.024,1.65-.013t3.14-.128q2.027-.09,5.435-.2a8.982,8.982,0,0,1,3.987.613,6.744,6.744,0,0,1,3.507,3.971Z" fill="#e05555"/>
      <path id="Caminho_303" data-name="Caminho 303" d="M6251.9,4838.772a25.906,25.906,0,0,1-1.253,4.316q-.853,2.238-1.829,4.76t-1.918,5.269a39.622,39.622,0,0,0-1.494,5.778,42.335,42.335,0,0,0-.65,6.37,29.246,29.246,0,0,0,.684,6.986l-1.207.082a52.672,52.672,0,0,1-1.984-7.887,33.612,33.612,0,0,1-.4-7.285,38.674,38.674,0,0,1,1.111-7.266,65.142,65.142,0,0,1,2.516-7.785,32.964,32.964,0,0,0,1.314-4.158,23.225,23.225,0,0,0,.663-4.586,14.879,14.879,0,0,0-.479-4.48,9.032,9.032,0,0,0-2.111-3.834,6.917,6.917,0,0,0-1.638-1.318,4.939,4.939,0,0,0-2.114-.625l-4.219-.4-14.1,12.956-3.366-3.665,35.633-32.73,3.367,3.665-19.534,17.942q7.564.321,14.289.562t11.843.414q5.969.165,11.088.337l3.878,4.223-34.122-2.877a13.736,13.736,0,0,1,2.759,2.258,13.288,13.288,0,0,1,3.138,5.885A16.562,16.562,0,0,1,6251.9,4838.772Z" fill="#e05555"/>
      <path id="Caminho_304" data-name="Caminho 304" d="M6261.718,4911.265l45.758-3.923q-.7-4.49-1.447-8.032t-1.333-5.957q-.75-2.844-1.434-4.935l5.021-.43,3.681,42.934-5.022.431q.319-2.178.58-5.045.166-2.481.31-5.97t.075-7.974l-45.759,3.922Z" fill="#e05555"/>
      <path id="Caminho_305" data-name="Caminho 305" d="M6297.031,4990.82l-45.952-15.146,1.557-4.727,23.037,7.593a1.726,1.726,0,0,0,1.235-.024,1.856,1.856,0,0,0,.914-.86,2.143,2.143,0,0,1,.148-.349,2.293,2.293,0,0,0,.148-.35,7.828,7.828,0,0,0,.352-2.072,29.222,29.222,0,0,0-.061-3.039q-.117-1.863-.354-4.66t-.591-6.961a8.488,8.488,0,0,1,.307-3.547,4.765,4.765,0,0,1,3.356-3.139l-20.523-6.765,1.558-4.726,45.952,15.145-1.558,4.727-23.035-7.593a1.5,1.5,0,0,0-.937.024,1.018,1.018,0,0,0-.695.7,6.111,6.111,0,0,0-.274,1.534,22.252,22.252,0,0,0,.059,2.64q.117,1.762.385,4.77t.723,7.866a7.62,7.62,0,0,1-.308,3.15,7.082,7.082,0,0,1-1.624,2.714,6.408,6.408,0,0,1-2.6,1.663l20.343,6.7Z" fill="#e05555"/>
      <path id="Caminho_306" data-name="Caminho 306" d="M6244.067,4989.283q-3.883,4.8-6.91,9.171t-5.152,7.77q-2.435,3.962-4.238,7.469l-3.805-3.209,22.013-26.1,36.988,31.193-22.014,26.1-3.805-3.209q3.152-2.369,6.647-5.438,3.039-2.629,6.837-6.349t7.825-8.4l-16.9-14.255a7.394,7.394,0,0,1,.582,3.952,8.215,8.215,0,0,1-2.074,4.267,11.17,11.17,0,0,1-1.131,1.147q-.646.568-1.359,1.121-1.386,1.055-2.531,1.78t-2.081,1.294q-.935.571-1.652,1.08a6.35,6.35,0,0,0-1.2,1.086,4.693,4.693,0,0,0-.906,1.708,10.037,10.037,0,0,0-.345,2.511l-.881.164a18.654,18.654,0,0,1-.012-4.872,8.642,8.642,0,0,1,2.02-4.642,6.89,6.89,0,0,1,1.962-1.642q2.624-1.745,4.421-2.947a13.409,13.409,0,0,0,2.814-2.408,4.424,4.424,0,0,0,1.074-2.885,3.76,3.76,0,0,0-1.2-2.826Z" fill="#e05555"/>
      <path id="Caminho_307" data-name="Caminho 307" d="M6180.8,5063.192a18.749,18.749,0,0,1-6.647.549,14.448,14.448,0,0,1-5.452-1.7,12.287,12.287,0,0,1-4.06-3.666,15.7,15.7,0,0,1-2.406-5.374,18.108,18.108,0,0,1-.5-5.815,12.017,12.017,0,0,1,1.773-5.406,14.939,14.939,0,0,1,4.552-4.539,25.083,25.083,0,0,1,7.9-3.229l16.264-4.041,11.683,47.018-12.473,3.1a42.73,42.73,0,0,1-6.97,1.212,14.24,14.24,0,0,1-5.171-.435,7.124,7.124,0,0,1-3.527-2.305,11.062,11.062,0,0,1-2.033-4.4,7.372,7.372,0,0,1,1.355-6.828,10.771,10.771,0,0,1,2.578-2.3,22.507,22.507,0,0,1,3.234-1.745Zm-1.939,9.7a10.653,10.653,0,0,0,1.332,3.141,6.787,6.787,0,0,0,2.419,2.288,9.109,9.109,0,0,0,3.8,1.037,17.521,17.521,0,0,0,5.463-.611l6.909-1.717-5.363-21.583a21.127,21.127,0,0,1-3.443,3.387q-1.849,1.434-3.648,2.693t-3.4,2.4a13.773,13.773,0,0,0-2.67,2.449,7.614,7.614,0,0,0-1.494,2.87A7.261,7.261,0,0,0,6178.862,5072.893Zm2.7-39.036a35.248,35.248,0,0,0-5.862,2.008,15.563,15.563,0,0,0-4.78,3.233,11.061,11.061,0,0,0-2.8,4.816,13.018,13.018,0,0,0,.151,6.747,15.364,15.364,0,0,0,2.567,5.756,10.825,10.825,0,0,0,8.321,4.359,16.6,16.6,0,0,0,4.684-.482,16.148,16.148,0,0,0,3.914-1.492,11.638,11.638,0,0,0,2.868-2.173,7.025,7.025,0,0,0,1.615-2.642,5.108,5.108,0,0,0,.1-2.879l-4.664-18.771Z" fill="#e05555"/>
      <path id="Caminho_308" data-name="Caminho 308" d="M6106.253,5081.162q-.325-6.888-.542-11.744t-.331-8.2q-.117-3.342-.164-5.36t-.044-3.2c0-.788.026-1.369.066-1.745s.086-.711.135-1a18.936,18.936,0,0,1,2.936-7.687,16.667,16.667,0,0,1,5.511-5.121,20.479,20.479,0,0,1,7.627-2.47,31.66,31.66,0,0,1,9.279.263,24.436,24.436,0,0,1,8.1,2.75,20.348,20.348,0,0,1,5.736,4.688,15.815,15.815,0,0,1,3.126,5.979,15.35,15.35,0,0,1,.336,6.634,19.928,19.928,0,0,1-1.472,4.832,17.783,17.783,0,0,1-3,4.58,24.4,24.4,0,0,1-4.761,4.063,29.389,29.389,0,0,1-6.7,3.231q-1.792.787-1.925,1.6a1.175,1.175,0,0,0,.124.786l10.449,12.847-7.4-1.228-8.024-10.145a2.178,2.178,0,0,1-.5-1.615,1.375,1.375,0,0,1,.491-.844,3.613,3.613,0,0,1,.958-.576l5.125-2.406a21.92,21.92,0,0,0,7.836-6.427,18.509,18.509,0,0,0,3.34-7.811,17.653,17.653,0,0,0-.144-6.634,18.455,18.455,0,0,0-2.366-5.949,15.973,15.973,0,0,0-4.14-4.486,12.588,12.588,0,0,0-5.46-2.311,18.489,18.489,0,0,0-6.4.086,19.26,19.26,0,0,0-6.114,2.211,16.7,16.7,0,0,0-4.84,4.146,12.637,12.637,0,0,0-2.574,5.9q-.042.248-.072.626c-.02.253-.028.74-.02,1.466s.026,1.77.054,3.138.077,3.259.144,5.676.162,5.433.285,9.052.263,8.036.418,13.256Z" fill="#e05555"/>
      <path id="Caminho_309" data-name="Caminho 309" d="M6068.8,5043.138a18.748,18.748,0,0,1-4.965-4.454,14.422,14.422,0,0,1-2.514-5.127,12.289,12.289,0,0,1-.125-5.468,15.721,15.721,0,0,1,2.252-5.441,18.086,18.086,0,0,1,3.879-4.36,12.016,12.016,0,0,1,5.146-2.427,14.968,14.968,0,0,1,6.426.189,25.074,25.074,0,0,1,7.77,3.52l14.111,9.042-26.139,40.791-10.821-6.934a42.72,42.72,0,0,1-5.668-4.231,14.216,14.216,0,0,1-3.237-4.057,7.109,7.109,0,0,1-.748-4.145,11.021,11.021,0,0,1,1.8-4.5,7.868,7.868,0,0,1,2.729-2.741,7.774,7.774,0,0,1,3.163-.966,10.839,10.839,0,0,1,3.439.3,22.687,22.687,0,0,1,3.49,1.151Zm-8.38,5.255a10.622,10.622,0,0,0-1.368,3.127,6.787,6.787,0,0,0,0,3.329,9.078,9.078,0,0,0,1.855,3.47,17.461,17.461,0,0,0,4.2,3.55l5.994,3.841,12-18.725a21.175,21.175,0,0,1-4.827-.174q-2.312-.36-4.462-.8t-4.078-.817a13.847,13.847,0,0,0-3.613-.258,7.621,7.621,0,0,0-3.112.887A7.253,7.253,0,0,0,6060.417,5048.393Zm30.219-24.858a35.359,35.359,0,0,0-5.488-2.88,15.634,15.634,0,0,0-5.632-1.252,11.094,11.094,0,0,0-5.421,1.278,13.015,13.015,0,0,0-4.8,4.745,15.352,15.352,0,0,0-2.42,5.819,10.829,10.829,0,0,0,2.55,9.042,16.571,16.571,0,0,0,3.568,3.072,16.19,16.19,0,0,0,3.773,1.819,11.62,11.62,0,0,0,3.55.591,7.053,7.053,0,0,0,3.029-.641,5.12,5.12,0,0,0,2.158-1.909l10.435-16.285Z" fill="#e05555"/>
      <path id="Caminho_310" data-name="Caminho 310" d="M6029.517,5004.512a18.772,18.772,0,0,1-2.915-6,14.436,14.436,0,0,1-.39-5.7,12.289,12.289,0,0,1,1.949-5.11,15.732,15.732,0,0,1,4.141-4.187,18.1,18.1,0,0,1,5.239-2.572,12.032,12.032,0,0,1,5.682-.3,14.959,14.959,0,0,1,5.877,2.6,25.03,25.03,0,0,1,5.865,6.194l9.65,13.7-39.61,27.9-7.4-10.508a42.683,42.683,0,0,1-3.651-6.059,14.232,14.232,0,0,1-1.465-4.979,7.13,7.13,0,0,1,.874-4.121,11.048,11.048,0,0,1,3.363-3.486,7.888,7.888,0,0,1,3.561-1.507,7.793,7.793,0,0,1,3.294.3,10.81,10.81,0,0,1,3.074,1.573,22.639,22.639,0,0,1,2.8,2.384Zm-9.744,1.7a10.63,10.63,0,0,0-2.447,2.378,6.779,6.779,0,0,0-1.259,3.083,9.1,9.1,0,0,0,.406,3.913,17.489,17.489,0,0,0,2.545,4.873l4.1,5.82,18.183-12.8a21.184,21.184,0,0,1-4.4-1.984q-2.005-1.208-3.829-2.428t-3.466-2.3a13.858,13.858,0,0,0-3.249-1.6,7.622,7.622,0,0,0-3.217-.355A7.276,7.276,0,0,0,6019.773,5006.212Zm37.37-11.6a35.318,35.318,0,0,0-3.993-4.74,15.593,15.593,0,0,0-4.742-3.287,11.059,11.059,0,0,0-5.5-.864,13.009,13.009,0,0,0-6.234,2.58,15.38,15.38,0,0,0-4.44,4.474,10.837,10.837,0,0,0-1.054,9.335,16.562,16.562,0,0,0,2.143,4.193,16.156,16.156,0,0,0,2.807,3.109,11.6,11.6,0,0,0,3.063,1.888,7.025,7.025,0,0,0,3.046.551,5.126,5.126,0,0,0,2.72-.952l15.813-11.136Z" fill="#e05555"/>
      <path id="Caminho_311" data-name="Caminho 311" d="M6037.131,4961.2q-1.567-5.973-3.123-10.945t-2.944-8.59q-1.537-4.228-3.006-7.635l4.838-1.166,7.851,32.584-47.038,11.334-1.166-4.838Z" fill="#e05555"/>
      <path id="Caminho_312" data-name="Caminho 312" d="M6031.634,4918.806q.719-6.133.94-11.444t.2-9.321q-.06-4.65-.409-8.578l4.931.679-4.661,33.827-47.931-6.6,4.661-33.826,4.929.679q-1.4,3.687-2.712,8.148-1.164,3.846-2.387,9.02t-2.127,11.281l21.907,3.018a7.391,7.391,0,0,1-2.6-3.029,8.207,8.207,0,0,1-.528-4.716,11.107,11.107,0,0,1,.344-1.574q.243-.825.549-1.673.606-1.633,1.189-2.857t1.066-2.206q.486-.982.82-1.795a6.414,6.414,0,0,0,.438-1.561,4.728,4.728,0,0,0-.148-1.929,10.078,10.078,0,0,0-1.049-2.306l.656-.61a18.607,18.607,0,0,1,2.613,4.113,8.644,8.644,0,0,1,.773,5,6.908,6.908,0,0,1-.78,2.436q-1.285,2.875-2.163,4.853a13.428,13.428,0,0,0-1.092,3.538,4.419,4.419,0,0,0,.634,3.013,3.756,3.756,0,0,0,2.526,1.747Z" fill="#e05555"/>
    </g>
    <g id="Grupo_110" data-name="Grupo 110">
      <g id="Grupo_107" data-name="Grupo 107">
        <path id="Caminho_313" data-name="Caminho 313" d="M6150.695,4913.959h0a32.519,32.519,0,0,1-1.551,9.924l-.078.242-.077-.242a32.52,32.52,0,0,1-1.552-9.924h3.258Z" fill="#e05555"/>
        <path id="Caminho_314" data-name="Caminho 314" d="M6147.437,4934.291h0a32.514,32.514,0,0,1,1.552-9.923l.077-.243.078.243a32.513,32.513,0,0,1,1.551,9.923h-3.258Z" fill="#e05555"/>
      </g>
      <g id="Grupo_108" data-name="Grupo 108">
        <path id="Caminho_315" data-name="Caminho 315" d="M6139.448,4927.8h0a32.525,32.525,0,0,1,9.37-3.619l.248-.054-.171.189a32.515,32.515,0,0,1-7.818,6.305h0Z" fill="#e05555"/>
        <path id="Caminho_316" data-name="Caminho 316" d="M6158.685,4920.453h0a32.5,32.5,0,0,1-9.37,3.618l-.249.054.172-.188a32.5,32.5,0,0,1,7.818-6.305h0Z" fill="#e05555"/>
      </g>
      <g id="Grupo_109" data-name="Grupo 109">
        <path id="Caminho_317" data-name="Caminho 317" d="M6141.077,4917.632h0a32.515,32.515,0,0,1,7.818,6.305l.171.188-.248-.054a32.494,32.494,0,0,1-9.37-3.618h0Z" fill="#e05555"/>
        <path id="Caminho_318" data-name="Caminho 318" d="M6157.056,4930.619h0a32.5,32.5,0,0,1-7.818-6.305l-.172-.189.249.054a32.528,32.528,0,0,1,9.37,3.619h0Z" fill="#e05555"/>
      </g>
    </g>
  </g>
</svg>
