<svg xmlns="http://www.w3.org/2000/svg" width="1214" height="497.477" viewBox="0 0 1214 497.477">
  <g id="Grupo_340" data-name="Grupo 340" transform="translate(-353 -316.523)">
    <text id="orientar_para_incluir_incluir_para_mudar." data-name="orientar para incluir, incluir para mudar." transform="translate(353 450)" fill="#e05555" font-size="100" font-family="Monarch"><tspan x="180.7" y="66">ORIENTAR PARA </tspan><tspan x="152.05" y="187">INCLUIR, INCLUIR </tspan><tspan x="236.7" y="308">PARA MUDAR.</tspan></text>
    <g id="Grupo_169" data-name="Grupo 169" transform="translate(560 316.523)">
      <g id="Grupo_167" data-name="Grupo 167">
        <g id="Grupo_164" data-name="Grupo 164" transform="translate(249.258)">
          <path id="Caminho_401" data-name="Caminho 401" d="M2311.818,821.876h0a51.321,51.321,0,0,1-2.449,15.663l-.122.381-.123-.381a51.3,51.3,0,0,1-2.449-15.663h5.143Z" transform="translate(-2306.675 -821.876)" fill="#e05555"/>
          <path id="Caminho_402" data-name="Caminho 402" d="M2306.675,846.5h0a51.293,51.293,0,0,1,2.449-15.661l.123-.383.122.383a51.316,51.316,0,0,1,2.449,15.661h-5.143Z" transform="translate(-2306.675 -814.413)" fill="#e05555"/>
        </g>
        <g id="Grupo_165" data-name="Grupo 165" transform="translate(236.649 5.796)">
          <path id="Caminho_403" data-name="Caminho 403" d="M2299.931,836.254h0a51.328,51.328,0,0,1,14.788-5.71l.393-.086-.271.3a51.31,51.31,0,0,1-12.339,9.95h0Z" transform="translate(-2299.931 -820.209)" fill="#e05555"/>
          <path id="Caminho_404" data-name="Caminho 404" d="M2323.23,829.429h0a51.312,51.312,0,0,1-14.786,5.711l-.393.084.27-.3a51.353,51.353,0,0,1,12.339-9.952h0Z" transform="translate(-2292.87 -824.976)" fill="#e05555"/>
        </g>
        <g id="Grupo_166" data-name="Grupo 166" transform="translate(236.649 5.796)">
          <path id="Caminho_405" data-name="Caminho 405" d="M2302.5,824.976h0a51.358,51.358,0,0,1,12.339,9.952l.271.3-.393-.084a51.332,51.332,0,0,1-14.788-5.711h0Z" transform="translate(-2299.931 -824.976)" fill="#e05555"/>
          <path id="Caminho_406" data-name="Caminho 406" d="M2320.66,840.707h0a51.306,51.306,0,0,1-12.339-9.95l-.27-.3.393.086a51.308,51.308,0,0,1,14.786,5.71h0Z" transform="translate(-2292.87 -820.209)" fill="#e05555"/>
        </g>
        <path id="Caminho_407" data-name="Caminho 407" d="M2228.34,834.077a33.981,33.981,0,0,0-11.844-7.863,40.841,40.841,0,0,0-15.377-2.787h-27.769v76.441h27.769a39.651,39.651,0,0,0,15.177-2.836,35.1,35.1,0,0,0,11.894-7.914,35.457,35.457,0,0,0,7.714-12.092,41.976,41.976,0,0,0,2.737-15.377,42.964,42.964,0,0,0-2.687-15.478A35.225,35.225,0,0,0,2228.34,834.077Zm-1.094,41.852a29.764,29.764,0,0,1-5.276,11.5,25.566,25.566,0,0,1-10,7.714q-6.271,2.838-15.628,2.836h-15.129V825.318h15.129q9.753,0,16.075,3.085a25.759,25.759,0,0,1,9.954,8.213,31.165,31.165,0,0,1,5.025,11.694,65.1,65.1,0,0,1,1.394,13.536A62.019,62.019,0,0,1,2227.247,875.929Z" transform="translate(-2173.351 -820.528)" fill="#e05555"/>
        <rect id="Retângulo_50" data-name="Retângulo 50" width="7.863" height="76.44" transform="translate(78.727 2.898)" fill="#e05555"/>
        <path id="Caminho_408" data-name="Caminho 408" d="M2287.6,823.426h-8.66l6.868,19.806a22.664,22.664,0,0,1,.746,12.343,34.547,34.547,0,0,1-4.827,11.646L2265.206,892.1a2.937,2.937,0,0,1-2.488,1.195,3.558,3.558,0,0,1-1.893-.548,3.1,3.1,0,0,1-1.293-1.542l-23.289-67.781h-9.655l27.072,76.441h9.256l28.963-39.911a18.586,18.586,0,0,0,3.234-8.112,18.934,18.934,0,0,0-.745-8.71Z" transform="translate(-2127.058 -820.528)" fill="#e05555"/>
        <path id="Caminho_409" data-name="Caminho 409" d="M2323.711,899.867h8.36l-33.641-76.441h-1.195l-33.542,76.441h8.959q.5-2.785.994-5.326t1.195-5.274c.464-1.825.995-3.756,1.492-5.822.273-1.126.561-2.21.855-3.27H2315.1C2318.809,888.683,2323.711,899.867,2323.711,899.867Zm-45.979-21.6c1.305-4.414,2.653-8.011,3.38-9.95q1.492-3.977,3.633-9.206t4.826-11.446q2.687-6.22,5.774-12.891l15.925,36.53c.462,1.107,1.6,3.734,3,6.962Z" transform="translate(-2094.792 -820.528)" fill="#e05555"/>
      </g>
      <g id="Grupo_168" data-name="Grupo 168" transform="translate(278.999 0.853)">
        <path id="Caminho_410" data-name="Caminho 410" d="M2549.707,899.867h8.361l-33.641-76.441h-1.195l-33.542,76.441h8.959q.5-2.785.995-5.326t1.193-5.274c.464-1.825,1-3.756,1.494-5.822.271-1.126.561-2.21.854-3.27H2541.1C2544.8,888.683,2549.707,899.867,2549.707,899.867Zm-45.978-21.6c1.3-4.414,2.653-8.011,3.381-9.95q1.492-3.977,3.632-9.206t4.827-11.446q2.687-6.22,5.771-12.891l15.925,36.53c.464,1.107,1.6,3.734,3,6.962Z" transform="translate(-2177.272 -821.381)" fill="#e05555"/>
        <path id="Caminho_411" data-name="Caminho 411" d="M2395.255,873.781a51.931,51.931,0,0,1-5.469,11.434,41.324,41.324,0,0,1-7.9,9.146,34.4,34.4,0,0,1-10.288,6.063,35.622,35.622,0,0,1-12.725,2.187,33.971,33.971,0,0,1-26.544-11.93,39.189,39.189,0,0,1-7.209-12.775,46.863,46.863,0,0,1-2.533-15.459,45.367,45.367,0,0,1,2.683-15.757,38.816,38.816,0,0,1,7.555-12.724,34.68,34.68,0,0,1,11.733-8.5,36.957,36.957,0,0,1,15.308-3.081,36.539,36.539,0,0,1,9.643,1.193,35,35,0,0,1,8.2,3.38,43.494,43.494,0,0,1,7.207,5.169,88.46,88.46,0,0,1,6.661,6.56l-7.853,5.171a68.419,68.419,0,0,0-4.574-6.859,34.44,34.44,0,0,0-5.566-5.816,27.3,27.3,0,0,0-6.712-4.076,20.512,20.512,0,0,0-8.1-1.542,29.752,29.752,0,0,0-12.278,2.386,25.213,25.213,0,0,0-8.946,6.611,28.4,28.4,0,0,0-5.469,9.942,40.139,40.139,0,0,0-1.84,12.377,49.976,49.976,0,0,0,2.038,13.919,44.546,44.546,0,0,0,5.915,12.775,32.6,32.6,0,0,0,9.593,9.346,24.048,24.048,0,0,0,13.173,3.629,28.591,28.591,0,0,0,10.539-1.989,39.062,39.062,0,0,0,9.394-5.268,42.162,42.162,0,0,0,12.974-16.4Z" transform="translate(-2322.583 -822.286)" fill="#e05555"/>
        <path id="Caminho_412" data-name="Caminho 412" d="M2401.328,822.332a35.93,35.93,0,0,1,16.157,3.429,34.409,34.409,0,0,1,11.531,9.1,38.669,38.669,0,0,1,6.91,12.874,48.81,48.81,0,0,1,0,29.526,38.652,38.652,0,0,1-6.91,12.874,34.413,34.413,0,0,1-11.531,9.1,39.545,39.545,0,0,1-32.213,0,33.849,33.849,0,0,1-11.481-9.1,39.036,39.036,0,0,1-6.86-12.874,48.77,48.77,0,0,1,0-29.526,39.054,39.054,0,0,1,6.86-12.874,33.846,33.846,0,0,1,11.481-9.1A35.678,35.678,0,0,1,2401.328,822.332Zm11.931,74.859a24.044,24.044,0,0,0,11.133-7.308,28.758,28.758,0,0,0,5.717-11.133,39.829,39.829,0,0,0,1.143-13.124,53.676,53.676,0,0,0-2.683-13.371,50.841,50.841,0,0,0-4.674-10.29,40.147,40.147,0,0,0-6.611-8.4,28.949,28.949,0,0,0-8.3-5.616,23.931,23.931,0,0,0-9.844-2.038,28.014,28.014,0,0,0-9.046,1.591,24.608,24.608,0,0,0-11.184,7.157,29.551,29.551,0,0,0-6.063,11.036,38.163,38.163,0,0,0-1.443,13.173,52.069,52.069,0,0,0,2.585,13.569q4.673,12.328,12.079,19.436a24.133,24.133,0,0,0,17.249,7.108A30.36,30.36,0,0,0,2413.259,897.191Z" transform="translate(-2286.009 -822.332)" fill="#e05555"/>
        <path id="Caminho_413" data-name="Caminho 413" d="M2502.027,899.746h-9.247l-21.474-70.883q-4.972,19.288-9.643,37.53t-8.848,33.353h-2.883l-21.373-70.883q-1.593,6.164-2.834,11.432t-2.337,10.288q-1.094,5.023-2.086,10.092t-1.939,10.887q-.948,5.813-1.939,12.674t-2.088,15.51h-8.151l19.385-76.351h8.352l19.086,60.742,15.409-60.742h8.351Z" transform="translate(-2249.017 -821.408)" fill="#e05555"/>
        <path id="Caminho_414" data-name="Caminho 414" d="M2517.378,844.219a23.1,23.1,0,0,1-1.939,9.892,19.988,19.988,0,0,1-5.171,6.859,25.117,25.117,0,0,1-7.456,4.324,50.769,50.769,0,0,1-8.9,2.436,69.505,69.505,0,0,1-9.494,1.043q-4.824.2-9.2.2h-4.672v30.82H2462.7v-76.45h19.883q2.883,0,6.511.148a63.482,63.482,0,0,1,7.357.746,37.879,37.879,0,0,1,7.308,1.939,23.8,23.8,0,0,1,6.462,3.629,19.009,19.009,0,0,1,4.822,5.816A21.213,21.213,0,0,1,2517.378,844.219Zm-46.826,17.894a3.44,3.44,0,0,0,4.076,4.175,99.58,99.58,0,0,0,17.3-1.241,29.513,29.513,0,0,0,10.885-3.877,14.262,14.262,0,0,0,5.667-6.809,27.782,27.782,0,0,0,1.642-10.14q0-5.965-2.634-9.544a17.493,17.493,0,0,0-6.76-5.517,29.561,29.561,0,0,0-9.2-2.535,85.768,85.768,0,0,0-10.04-.6q-3.085,0-5.866.1t-5.071.2Z" transform="translate(-2200.743 -821.454)" fill="#e05555"/>
        <path id="Caminho_415" data-name="Caminho 415" d="M2592.717,879.9a18.387,18.387,0,0,1-3.032,10.737,24.163,24.163,0,0,1-7.506,7.059,33.035,33.035,0,0,1-9.692,3.877,43.728,43.728,0,0,1-9.694,1.193,44.5,44.5,0,0,1-10.638-1.294,35.567,35.567,0,0,1-9.841-4.025,33.583,33.583,0,0,1-8.251-7.009A36.339,36.339,0,0,1,2528,880.3l1.888-.995a27.73,27.73,0,0,0,5.816,7.805,36.984,36.984,0,0,0,8,5.766,41.341,41.341,0,0,0,9.2,3.578,37.869,37.869,0,0,0,9.494,1.243,29.526,29.526,0,0,0,8.3-1.144,20.774,20.774,0,0,0,6.912-3.429,16.624,16.624,0,0,0,4.771-5.867,18.688,18.688,0,0,0,1.789-8.45,12.113,12.113,0,0,0-2.137-7.555,14.937,14.937,0,0,0-5.667-4.423,32.468,32.468,0,0,0-7.953-2.436q-4.425-.794-9.1-1.69-2.288-.4-5.27-.8t-6.112-1.043a40.657,40.657,0,0,1-6.164-1.789,20.811,20.811,0,0,1-5.419-2.982,13.529,13.529,0,0,1-3.825-4.674,15.072,15.072,0,0,1-1.443-6.908,22.262,22.262,0,0,1,3.431-9.694,24.383,24.383,0,0,1,6.811-6.859,31.18,31.18,0,0,1,9.1-4.126,38.357,38.357,0,0,1,10.291-1.391,40.229,40.229,0,0,1,9.293,1.094,37.937,37.937,0,0,1,8.75,3.231,32.438,32.438,0,0,1,7.506,5.369,25.836,25.836,0,0,1,5.468,7.6l-7.358,4.474q-4.573-9.442-10.587-14.265a21.819,21.819,0,0,0-14.067-4.822,27.453,27.453,0,0,0-7.208,1.043,22.293,22.293,0,0,0-7.007,3.279,17.833,17.833,0,0,0-5.171,5.618,14.045,14.045,0,0,0-1.69,8.153,9.8,9.8,0,0,0,2.784,6.659,16.621,16.621,0,0,0,6.314,3.679,46.243,46.243,0,0,0,8.648,1.939q4.82.648,9.843,1.341a85.723,85.723,0,0,1,9.791,1.941,27.231,27.231,0,0,1,8.453,3.728,18.9,18.9,0,0,1,5.964,6.611Q2592.718,873.239,2592.717,879.9Z" transform="translate(-2143.961 -822.24)" fill="#e05555"/>
        <path id="Caminho_416" data-name="Caminho 416" d="M2631.48,879.9a18.391,18.391,0,0,1-3.032,10.737,24.179,24.179,0,0,1-7.5,7.059,33.048,33.048,0,0,1-9.693,3.877,43.72,43.72,0,0,1-9.692,1.193,44.492,44.492,0,0,1-10.638-1.294,35.555,35.555,0,0,1-9.844-4.025,33.641,33.641,0,0,1-8.25-7.009,36.434,36.434,0,0,1-6.065-10.141l1.89-.995a27.675,27.675,0,0,0,5.815,7.805,36.976,36.976,0,0,0,8,5.766,41.293,41.293,0,0,0,9.2,3.578,37.857,37.857,0,0,0,9.493,1.243,29.541,29.541,0,0,0,8.3-1.144,20.747,20.747,0,0,0,6.91-3.429,16.6,16.6,0,0,0,4.771-5.867,18.659,18.659,0,0,0,1.789-8.45,12.126,12.126,0,0,0-2.135-7.555,14.956,14.956,0,0,0-5.668-4.423,32.426,32.426,0,0,0-7.954-2.436q-4.425-.794-9.1-1.69-2.286-.4-5.269-.8t-6.114-1.043a40.7,40.7,0,0,1-6.164-1.789,20.8,20.8,0,0,1-5.418-2.982,13.546,13.546,0,0,1-3.827-4.674,15.1,15.1,0,0,1-1.441-6.908,22.262,22.262,0,0,1,3.431-9.694,24.375,24.375,0,0,1,6.808-6.859,31.18,31.18,0,0,1,9.1-4.126,38.36,38.36,0,0,1,10.29-1.391,40.238,40.238,0,0,1,9.3,1.094,37.979,37.979,0,0,1,8.75,3.231,32.47,32.47,0,0,1,7.5,5.369,25.805,25.805,0,0,1,5.468,7.6l-7.356,4.474q-4.575-9.442-10.588-14.265a21.822,21.822,0,0,0-14.068-4.822,27.455,27.455,0,0,0-7.208,1.043,22.253,22.253,0,0,0-7.007,3.279,17.836,17.836,0,0,0-5.171,5.618,14.032,14.032,0,0,0-1.69,8.153,9.786,9.786,0,0,0,2.784,6.659,16.621,16.621,0,0,0,6.314,3.679,46.181,46.181,0,0,0,8.648,1.939q4.821.648,9.843,1.341a85.7,85.7,0,0,1,9.791,1.941,27.206,27.206,0,0,1,8.45,3.728,18.9,18.9,0,0,1,5.966,6.611Q2631.482,873.239,2631.48,879.9Z" transform="translate(-2110.253 -822.24)" fill="#e05555"/>
      </g>
    </g>
  </g>
</svg>
