<svg xmlns="http://www.w3.org/2000/svg" width="802.43" height="444.319" viewBox="0 0 802.43 444.319">
  <g id="Grupo_338" data-name="Grupo 338" transform="translate(-559 -315.881)">
    <g id="Grupo_155" data-name="Grupo 155" transform="translate(722 315.881)">
      <g id="Grupo_154" data-name="Grupo 154">
        <g id="Grupo_152" data-name="Grupo 152" transform="translate(236.649)">
          <g id="Grupo_149" data-name="Grupo 149" transform="translate(12.61)">
            <path id="Caminho_371" data-name="Caminho 371" d="M2474.065,631.114h0a51.367,51.367,0,0,1-2.447,15.661l-.123.383-.124-.383a51.374,51.374,0,0,1-2.447-15.661h5.141Z" transform="translate(-2468.924 -631.114)" fill="#e05555"/>
            <path id="Caminho_372" data-name="Caminho 372" d="M2468.924,655.741h0a51.376,51.376,0,0,1,2.447-15.663l.124-.382.123.382a51.368,51.368,0,0,1,2.447,15.663h-5.141Z" transform="translate(-2468.924 -623.651)" fill="#e05555"/>
          </g>
          <g id="Grupo_150" data-name="Grupo 150" transform="translate(0 5.796)">
            <path id="Caminho_373" data-name="Caminho 373" d="M2462.179,645.492h0a51.357,51.357,0,0,1,14.788-5.711l.393-.084-.269.3a51.373,51.373,0,0,1-12.342,9.952h0Z" transform="translate(-2462.179 -629.447)" fill="#e05555"/>
            <path id="Caminho_374" data-name="Caminho 374" d="M2485.48,638.667h0a51.343,51.343,0,0,1-14.788,5.71l-.392.086.271-.3a51.241,51.241,0,0,1,12.339-9.952h0Z" transform="translate(-2455.118 -634.214)" fill="#e05555"/>
          </g>
          <g id="Grupo_151" data-name="Grupo 151" transform="translate(0 5.796)">
            <path id="Caminho_375" data-name="Caminho 375" d="M2464.749,634.214h0a51.288,51.288,0,0,1,12.342,9.952l.269.3-.393-.086a51.357,51.357,0,0,1-14.788-5.71h0Z" transform="translate(-2462.179 -634.214)" fill="#e05555"/>
            <path id="Caminho_376" data-name="Caminho 376" d="M2482.909,649.945h0a51.326,51.326,0,0,1-12.339-9.952l-.271-.3.392.084a51.344,51.344,0,0,1,14.788,5.711h0Z" transform="translate(-2455.118 -629.447)" fill="#e05555"/>
          </g>
        </g>
        <g id="Grupo_153" data-name="Grupo 153" transform="translate(0 2.897)">
          <path id="Caminho_377" data-name="Caminho 377" d="M2390.589,643.313a33.972,33.972,0,0,0-11.844-7.863,40.879,40.879,0,0,0-15.377-2.786H2335.6V709.1h27.768a39.62,39.62,0,0,0,15.179-2.836,35.086,35.086,0,0,0,11.894-7.914,35.49,35.49,0,0,0,7.714-12.092,42,42,0,0,0,2.737-15.377,42.922,42.922,0,0,0-2.689-15.476A35.189,35.189,0,0,0,2390.589,643.313Zm-1.094,41.854a29.774,29.774,0,0,1-5.276,11.494,25.553,25.553,0,0,1-10,7.714q-6.27,2.838-15.626,2.836h-15.129V634.554h15.129q9.754,0,16.075,3.087a25.761,25.761,0,0,1,9.952,8.211,31.2,31.2,0,0,1,5.027,11.694,65.183,65.183,0,0,1,1.393,13.537A61.922,61.922,0,0,1,2389.5,685.167Z" transform="translate(-2335.599 -632.663)" fill="#e05555"/>
          <rect id="Retângulo_48" data-name="Retângulo 48" width="7.863" height="76.44" transform="translate(78.728)" fill="#e05555"/>
          <path id="Caminho_378" data-name="Caminho 378" d="M2449.848,632.664h-8.658l6.866,19.806a22.637,22.637,0,0,1,.746,12.341,34.535,34.535,0,0,1-4.827,11.646l-16.522,24.884a2.935,2.935,0,0,1-2.488,1.195,3.564,3.564,0,0,1-1.892-.55,3.1,3.1,0,0,1-1.292-1.541l-23.292-67.781h-9.654l27.072,76.439h9.258l28.963-39.911a18.61,18.61,0,0,0,3.234-8.112,18.957,18.957,0,0,0-.748-8.71Z" transform="translate(-2289.306 -632.663)" fill="#e05555"/>
          <path id="Caminho_379" data-name="Caminho 379" d="M2485.959,709.1h8.361l-33.643-76.439h-1.192L2425.943,709.1h8.957q.5-2.785,1-5.324t1.193-5.274c.464-1.827.994-3.758,1.494-5.824.271-1.125.56-2.21.854-3.27h37.913C2481.056,697.919,2485.959,709.1,2485.959,709.1Zm-45.98-21.6c1.307-4.412,2.653-8.011,3.38-9.948q1.5-3.979,3.632-9.208t4.828-11.446q2.689-6.22,5.773-12.889l15.925,36.528c.462,1.107,1.6,3.734,3,6.962Z" transform="translate(-2257.039 -632.663)" fill="#e05555"/>
        </g>
      </g>
      <path id="Caminho_380" data-name="Caminho 380" d="M2578.965,709.1h8.361l-33.641-76.439h-1.2L2518.948,709.1h8.957q.5-2.785,1-5.324t1.192-5.274c.464-1.827,1-3.758,1.494-5.824.271-1.125.561-2.21.854-3.27h37.913C2574.061,697.919,2578.965,709.1,2578.965,709.1Zm-45.978-21.6c1.3-4.412,2.653-8.011,3.38-9.948q1.492-3.979,3.633-9.208t4.827-11.446q2.687-6.22,5.771-12.889l15.925,36.528c.464,1.107,1.6,3.734,3,6.962Z" transform="translate(-2176.165 -629.766)" fill="#e05555"/>
      <path id="Caminho_381" data-name="Caminho 381" d="M2494.546,705.007q9.742-.2,17.944-.744t14.267-1.342q7.056-.794,12.825-1.789v7.852h-52.89V632.632h7.854Z" transform="translate(-2204.214 -629.794)" fill="#e05555"/>
      <path id="Caminho_382" data-name="Caminho 382" d="M2590.676,662.5a29.588,29.588,0,0,1,10.387,1.69,22.746,22.746,0,0,1,7.706,4.674,19.386,19.386,0,0,1,4.822,7.157,24.8,24.8,0,0,1,1.641,9.146,28.588,28.588,0,0,1-1.443,9.1,19.01,19.01,0,0,1-4.773,7.605,23.587,23.587,0,0,1-8.7,5.218A39.581,39.581,0,0,1,2587,709.029h-26.445v-76.45h20.281a67.514,67.514,0,0,1,11.135.795,22.481,22.481,0,0,1,7.755,2.634,11.27,11.27,0,0,1,4.525,4.872,17.465,17.465,0,0,1,1.439,7.506,11.646,11.646,0,0,1-4.672,9.942,17.05,17.05,0,0,1-4.822,2.533,35.6,35.6,0,0,1-5.616,1.443Zm6.659-14.117a16.724,16.724,0,0,0-.845-5.319,10.685,10.685,0,0,0-2.83-4.423,14.373,14.373,0,0,0-5.42-3.033,27.6,27.6,0,0,0-8.6-1.144h-11.233v35.1a33.4,33.4,0,0,1,6.56-3.879q3.379-1.489,6.613-2.731t6.112-2.388a21.809,21.809,0,0,0,5.021-2.733,12.049,12.049,0,0,0,3.381-3.829A11.449,11.449,0,0,0,2597.335,648.386Zm-18.987,58.755a55.636,55.636,0,0,0,9.742-.845,24.6,24.6,0,0,0,8.549-3.132,17.474,17.474,0,0,0,6.116-6.313,20.539,20.539,0,0,0,2.337-10.387,24.269,24.269,0,0,0-1.741-9.795,17.093,17.093,0,0,0-11.087-9.841,26.144,26.144,0,0,0-7.355-1.043,25.478,25.478,0,0,0-6.562.795,18.406,18.406,0,0,0-5.22,2.236,11.115,11.115,0,0,0-3.479,3.431,8.081,8.081,0,0,0-1.241,4.375v30.521Z" transform="translate(-2139.989 -629.84)" fill="#e05555"/>
    </g>
    <path id="Caminho_517" data-name="Caminho 517" d="M235.15-7.9c3.1-.1,6.9-.3,11-.3,13.2,0,28.8,2.3,28.8,18.3,0,15.9-7.7,22.2-35.7,22.2-2.9,0-4.1-1-4.1-4.2Zm47.1,18c-1.6-20.4-23.3-21-35-21h-20V66h7.9V35h4.7C257.35,35,282.25,33.5,282.25,10.1Zm17.4,22.1a6.6,6.6,0,0,1,6.8-6c3.3,0,7.6,1.4,13.9,3.3a11.25,11.25,0,0,0,4,.7c5.5,0,10.4-3.7,13.6-7.3l-1.1-.9c-2.5,2-4.4,2.8-6.4,2.8-3.3,0-6.9-2.1-14-3.7a26.668,26.668,0,0,0-5.3-.7c-5.9,0-9.7,2.8-11.5,6.6V-8.1a231.751,231.751,0,0,1,46.3,5.2v-7.9h-54.2V66h54.2V58.1a231.75,231.75,0,0,1-46.3,5.2Zm119.4,13c0-35.5-52.9-14.1-54.4-36.9-.8-12.7,12.1-18.2,21.2-18.2,10.7,0,18.7,6.6,24.8,19.2l7.4-4.5c-5.6-11.6-18.7-17.4-31.2-17.4-14.2,0-27.9,7.4-29.8,22.2,0,16.4,19.2,16.6,28.4,18.3,12.4,2.3,25,3.4,25,16.2,0,13.1-10.2,19-21.9,19-12.5,0-26.8-6.7-32.7-18.5l-1.9,1c6.3,15.8,20.5,22.6,35,22.6C400.85,68.2,419.05,62.2,419.05,45.2Zm71.6,9.7c5.9-7.5,8.9-17.4,8.9-27.3,0-20.2-12.3-40.4-37.1-40.4-24.6,0-36.9,20.2-36.9,40.4S437.85,68,462.45,68c9.2,0,16.8-2.8,22.6-7.5,8.8,10.7,17.4,15.5,32.5,19.4l1-1.7C504.95,73,496.95,64.1,490.65,54.9ZM450.95-7.6a29.136,29.136,0,0,1,8.9-1.5c14.5,0,25.8,12.2,30.7,27,3.9,11.4,3.5,24.6-2.1,33.8-3.2-4.6-6.1-8.8-9.2-11.8-4.4-4.1-10-5.3-14.8-5.3-10,0-18.7,5.9-26.2,11.9C429.05,28.8,428.25,0,450.95-7.6Zm-9.7,59.1a4.414,4.414,0,0,1,.6-5.6c4.3-4.1,11.1-7.7,17.2-7.7,10.1,0,15.7,8.6,20.6,15.3q1.65,2.4,3.3,4.5a30.124,30.124,0,0,1-18.3,6.5C455.65,64.5,446.95,59.9,441.25,51.5Zm129.6-62.3h-8.2c9.7,48.7,9.9,50.3,9.9,51.8,0,14.4-14.6,24.5-28,24.5-12.7,0-24-12.7-24-27.2,0-8.7,4-17.8,13.8-25.2l7.4-5.1a3.419,3.419,0,0,0,1.9-2.6,3.407,3.407,0,0,0-1.2-2.4l-15.2-13.8h-11.9l19.7,17.4a1.922,1.922,0,0,1,.4,1.2c0,.9-.8,1.8-2.6,3-15.3,8.4-20.6,19.8-20.6,30.3,0,14.4,12.5,26.9,32.3,26.9,21.3,0,35.8-11,35.8-30.1C580.35,35.1,580.05,32,570.85-10.8Zm30.4,0h-7.9V66h7.9Zm78.6,56c0-35.5-52.9-14.1-54.4-36.9-.8-12.7,12.1-18.2,21.2-18.2,10.7,0,18.7,6.6,24.8,19.2l7.4-4.5c-5.6-11.6-18.7-17.4-31.2-17.4-14.2,0-27.9,7.4-29.8,22.2,0,16.4,19.2,16.6,28.4,18.3,12.4,2.3,25,3.4,25,16.2,0,13.1-10.2,19-21.9,19-12.5,0-26.8-6.7-32.7-18.5l-1.9,1c6.3,15.8,20.5,22.6,35,22.6C661.65,68.2,679.85,62.2,679.85,45.2ZM747.65,66h8.4l-33.8-76.8h-1.2L687.35,66h9c1.2-7.4,2.8-13.2,5.5-23.4a6.258,6.258,0,0,0,6.4,4.5c2.5,0,5.6-.9,9.4-2.8l9.9-4.7a15.073,15.073,0,0,1,5.4-1.3c1.2,0,2.7.3,3.2,1.5Zm-12.5-28.7c-2.4-2.4-4.8-3.6-7.6-3.6a14.258,14.258,0,0,0-6.2,1.6c-13.1,6.2-14.3,7.1-16.2,7.2-1.3.1-2.8-1-2.5-2,1.8-5.9,8.3-22,16.5-39.9Zm77.3-5.1a6.6,6.6,0,0,1,6.8-6c3.3,0,7.6,1.4,13.9,3.3a11.25,11.25,0,0,0,4,.7c5.5,0,10.4-3.7,13.6-7.3l-1.1-.9c-2.5,2-4.4,2.8-6.4,2.8-3.3,0-6.9-2.1-14-3.7a26.668,26.668,0,0,0-5.3-.7c-5.9,0-9.7,2.8-11.5,6.6V-8.1a231.751,231.751,0,0,1,46.3,5.2v-7.9h-54.2V66h54.2V58.1a231.751,231.751,0,0,1-46.3,5.2ZM206.1,166.2c0-35.5-52.9-14.1-54.4-36.9-.8-12.7,12.1-18.2,21.2-18.2,10.7,0,18.7,6.6,24.8,19.2l7.4-4.5c-5.6-11.6-18.7-17.4-31.2-17.4-14.2,0-27.9,7.4-29.8,22.2,0,16.4,19.2,16.6,28.4,18.3,12.4,2.3,25,3.4,25,16.2,0,13.1-10.2,19-21.9,19-12.5,0-26.8-6.7-32.7-18.5l-1.9,1c6.3,15.8,20.5,22.6,35,22.6C187.9,189.2,206.1,183.2,206.1,166.2Zm44,20.8V114.1c18.7,1.3,29.9,4.1,29.9,4.1v-8H211.6v8s11.2-2.8,30.5-4.1V187Zm68-78.8c-24.6,0-36.9,20.2-36.9,40.4S293.5,189,318.1,189c24.7,0,37.1-20.2,37.1-40.4S342.9,108.2,318.1,108.2Zm12,75.3a30.681,30.681,0,0,1-10,1.8c-13.2,0-23.2-10.2-29.5-26.7-6-17.7-2.4-39,16.2-45.2a27.74,27.74,0,0,1,9.1-1.6c14.1,0,24.7,11.8,29.6,26.5C351.4,155.6,348.9,177.1,330.1,183.5Zm76.6-27.4c-3-4.1-6.8-5.3-11.3-5.6,11.3-1.1,21.7-8.1,21.7-19.7,0-20.4-21-20.7-32.6-20.7h-20V187h7.9V151.6h4.8c13.5.5,20.4,3.1,26.5,15.6,8.3,16.9,16.9,26.2,34,33.9l1.2-1.5C418.5,187.4,414.6,166.9,406.7,156.1Zm-34.3-11.2V113.1c3.6-.1,8.1-.5,12.7-.5,11.9,0,24.4,2.5,24.4,18.4,0,9-3.8,18.1-31.6,18.1C374.4,149.1,372.4,149.1,372.4,144.9Zm115.2-34.8c-8,18.6-16.9,32-22.2,38.1-5.4-6.1-14.2-19.5-22.2-38.1H432.9l26,36.6c1,1.5,2.4,3.7,2.4,5.9V187h8.1V152.6c0-2.2,1.4-4.4,2.4-5.9l26-36.6ZM540.8,187V114.1c18.7,1.3,29.9,4.1,29.9,4.1v-8H502.3v8s11.2-2.8,30.5-4.1V187Zm45.3-33.8a6.6,6.6,0,0,1,6.8-6c3.3,0,7.6,1.4,13.9,3.3a11.25,11.25,0,0,0,4,.7c5.5,0,10.4-3.7,13.6-7.3l-1.1-.9c-2.5,2-4.4,2.8-6.4,2.8-3.3,0-6.9-2.1-14-3.7a26.668,26.668,0,0,0-5.3-.7c-5.9,0-9.7,2.8-11.5,6.6V112.9a231.751,231.751,0,0,1,46.3,5.2v-7.9H578.2V187h54.2v-7.9a231.751,231.751,0,0,1-46.3,5.2Zm64.7-43h-7.9V187h53.2v-7.9a293.86,293.86,0,0,1-45.3,3.9Zm63.7,0h-7.9V187h53.2v-7.9a293.86,293.86,0,0,1-45.3,3.9Zm66.7,0h-7.9V187h7.9Zm80.1,75v-75H852s4.9,20.5,4.9,70.9c0,2.2-.8,3-2,3-2.6,0-7.6-4.5-8.8-6.2-10.4-14.4-15.4-54.7-31.8-67.1-2.3-1.7-4.1-2.6-6.4-2.6a9.9,9.9,0,0,0-4.5,1.1l-6.7,3.2V187H806s-5-18.6-5-70.8c0-1.9.8-2.6,2-2.6,2.5,0,6.6,3,8.8,5.3,12.2,13.2,16.9,48.8,27.5,62.7,3.8,5,7.2,7.5,11.3,7.5a11.444,11.444,0,0,0,4.6-1.1Zm60.9-39-19.4,12,.6,1.4,10.5-5.3c5.8-3,9.7-4.2,12.7-4.2s5.1,1.2,7.2,3.3c4.6,4.6,5,13.9-.9,20.1-6.4,6.7-12.8,9.3-22.1,9.3-13.5-.6-25.2-9.7-30.4-23.2-6-17.7-2.8-40.1,15.8-46.3a33.705,33.705,0,0,1,11-2.1c10.7,0,18.2,6.9,25.1,18.4l7.9-5.2c-11.8-13-21.1-16.5-30.9-16.5-23.3,0-38.5,17.6-38.5,40.6,0,20.2,12.3,40.5,36.9,40.4,15.1-.1,27.4-9.9,34-21.7,0-.1,0-.1.1-.2,5.5-10-3.9-22.5-13.6-22.5A10.946,10.946,0,0,0,922.2,146.2ZM263.25,280.1c-5.3,12.3-18.5,23.8-33.1,23.8-19.9,0-30.9-21.5-30.9-39.9,0-17.8,10.1-31.5,28.7-31.5,11.9,0,19.5,8.9,25.1,18.4l7.9-5.2c-8.7-9.6-17.8-16.4-31.9-16.4-22.6,0-37.5,17.6-37.5,40.3,0,21.9,13.9,40.4,36.5,40.4,18.6,0,30.9-12.5,36.6-29Zm44.3-50.9c-24.6,0-36.9,20.2-36.9,40.4s12.3,40.4,36.9,40.4c24.7,0,37.1-20.2,37.1-40.4S332.35,229.2,307.55,229.2Zm12,75.3a30.68,30.68,0,0,1-10,1.8c-13.2,0-23.2-10.2-29.5-26.7-6-17.7-2.4-39,16.2-45.2a27.74,27.74,0,0,1,9.1-1.6c14.1,0,24.7,11.8,29.6,26.5C340.85,276.6,338.35,298.1,319.55,304.5Zm102.1-73.3h-8.4l-15.5,61.1-19.2-61.1h-8.4L350.65,308h8.2c4.6-34.6,7-46.4,13.3-71.3l21.5,71.3h2.9c5.5-20.1,12-45.6,18.6-71.3l21.6,71.3h9.3Zm138,38.4c0-22.7-15.1-38.4-37.7-38.4h-27.9V308h27.9C544.15,308,559.65,291.9,559.65,269.6Zm-57.7-36.5h15.2c26.2,0,32.6,18,32.6,36.7,0,20.1-7.5,36.3-32.6,36.3h-15.2ZM627.45,308h8.4l-33.8-76.8h-1.2L567.15,308h9c1.2-7.4,2.8-13.2,5.5-23.4a6.258,6.258,0,0,0,6.4,4.5c2.5,0,5.6-.9,9.4-2.8l9.9-4.7a15.073,15.073,0,0,1,5.4-1.3c1.2,0,2.7.3,3.2,1.5Zm-12.5-28.7c-2.4-2.4-4.8-3.6-7.6-3.6a14.258,14.258,0,0,0-6.2,1.6c-13.1,6.2-14.3,7.1-16.2,7.2-1.3.1-2.8-1-2.5-2,1.8-5.9,8.3-22,16.5-39.9Zm96-9.7c0-22.7-15.1-38.4-37.7-38.4h-27.9V308h27.9C695.45,308,710.95,291.9,710.95,269.6Zm-57.7-36.5h15.2c26.2,0,32.6,18,32.6,36.7,0,20.1-7.5,36.3-32.6,36.3h-15.2Zm102.3-3.9c-24.6,0-36.9,20.2-36.9,40.4s12.3,40.4,36.9,40.4c24.7,0,37.1-20.2,37.1-40.4S780.35,229.2,755.55,229.2Zm12,75.3a30.681,30.681,0,0,1-10,1.8c-13.2,0-23.2-10.2-29.5-26.7-6-17.7-2.4-39,16.2-45.2a27.741,27.741,0,0,1,9.1-1.6c14.1,0,24.7,11.8,29.6,26.5C788.85,276.6,786.35,298.1,767.55,304.5Zm97.2-17.3c0-35.5-52.9-14.1-54.4-36.9-.8-12.7,12.1-18.2,21.2-18.2,10.7,0,18.7,6.6,24.8,19.2l7.4-4.5c-5.6-11.6-18.7-17.4-31.2-17.4-14.2,0-27.9,7.4-29.8,22.2,0,16.4,19.2,16.6,28.4,18.3,12.4,2.3,25,3.4,25,16.2,0,13.1-10.2,19-21.9,19-12.5,0-26.8-6.7-32.7-18.5l-1.9,1c6.3,15.8,20.5,22.6,35,22.6C846.55,310.2,864.75,304.2,864.75,287.2Zm20.3,15.9a1.04,1.04,0,0,0,0-1.6l-4.7-4.7a1.135,1.135,0,0,0-.8-.3,1.6,1.6,0,0,0-.8.3l-4.7,4.7a1.215,1.215,0,0,0,0,1.6l4.7,4.7a1.2,1.2,0,0,0,.8.4.909.909,0,0,0,.8-.4Z" transform="translate(418 450)" fill="#e05555"/>
  </g>
</svg>
