<svg xmlns="http://www.w3.org/2000/svg" width="1244" height="369" viewBox="0 0 1244 369">
  <g id="Grupo_341" data-name="Grupo 341" transform="translate(-338 -317)">
    <text id="break_your_bubble" data-name="break your bubble" transform="translate(338 450)" fill="#253825" font-size="100" font-family="Monarch"><tspan x="60.4" y="66">BREAK YOUR BUBBLE</tspan></text>
    <g id="Grupo_187" data-name="Grupo 187" transform="translate(-1356.878 -719.736)">
      <g id="Grupo_185" data-name="Grupo 185" transform="translate(2360.465 1036.736)">
        <g id="Grupo_183" data-name="Grupo 183" transform="translate(235.129)">
          <g id="Grupo_180" data-name="Grupo 180" transform="translate(12.529)">
            <path id="Caminho_440" data-name="Caminho 440" d="M2336.125,1036.736h0a50.981,50.981,0,0,1-2.432,15.562l-.122.379-.121-.379a50.982,50.982,0,0,1-2.433-15.562h5.108Z" transform="translate(-2331.016 -1036.736)" fill="#253825"/>
            <path id="Caminho_441" data-name="Caminho 441" d="M2331.016,1061.259h0a50.98,50.98,0,0,1,2.433-15.561l.121-.381.122.381a50.979,50.979,0,0,1,2.432,15.561h-5.108Z" transform="translate(-2331.016 -1029.377)" fill="#253825"/>
          </g>
          <g id="Grupo_181" data-name="Grupo 181" transform="translate(0 5.759)">
            <path id="Caminho_442" data-name="Caminho 442" d="M2324.271,1051.076h0a51.009,51.009,0,0,1,14.693-5.673l.391-.085-.268.3a50.944,50.944,0,0,1-12.26,9.888h0Z" transform="translate(-2324.271 -1035.135)" fill="#253825"/>
            <path id="Caminho_443" data-name="Caminho 443" d="M2347.474,1044.261h0a51,51,0,0,1-14.693,5.675l-.39.084.269-.3a51,51,0,0,1,12.26-9.888h0Z" transform="translate(-2317.308 -1039.836)" fill="#253825"/>
          </g>
          <g id="Grupo_182" data-name="Grupo 182" transform="translate(0 5.759)">
            <path id="Caminho_444" data-name="Caminho 444" d="M2326.827,1039.836h0a51.032,51.032,0,0,1,12.26,9.888l.268.3-.391-.084a51.02,51.02,0,0,1-14.693-5.675h0Z" transform="translate(-2324.271 -1039.836)" fill="#253825"/>
            <path id="Caminho_445" data-name="Caminho 445" d="M2344.92,1055.5h0a50.915,50.915,0,0,1-12.26-9.888l-.269-.3.39.085a50.987,50.987,0,0,1,14.693,5.673h0Z" transform="translate(-2317.308 -1035.135)" fill="#253825"/>
          </g>
        </g>
        <g id="Grupo_184" data-name="Grupo 184" transform="translate(0 2.879)">
          <path id="Caminho_446" data-name="Caminho 446" d="M2252.329,1048.867a33.78,33.78,0,0,0-11.77-7.811,40.578,40.578,0,0,0-15.278-2.77h-27.59v75.95h27.59a39.4,39.4,0,0,0,15.082-2.818,34.885,34.885,0,0,0,11.817-7.863,35.245,35.245,0,0,0,7.664-12.015,41.732,41.732,0,0,0,2.72-15.278,42.647,42.647,0,0,0-2.672-15.378A35.018,35.018,0,0,0,2252.329,1048.867Zm-1.088,41.585a29.611,29.611,0,0,1-5.24,11.422,25.408,25.408,0,0,1-9.94,7.665q-6.23,2.819-15.525,2.818H2205.5v-72.19h15.031q9.691,0,15.971,3.065a25.581,25.581,0,0,1,9.888,8.16,30.931,30.931,0,0,1,5,11.619,64.632,64.632,0,0,1,1.384,13.449A61.525,61.525,0,0,1,2251.241,1090.452Z" transform="translate(-2197.691 -1038.286)" fill="#253825"/>
          <rect id="Retângulo_53" data-name="Retângulo 53" width="7.812" height="75.949" transform="translate(78.223)" fill="#253825"/>
          <path id="Caminho_447" data-name="Caminho 447" d="M2311.549,1038.286h-8.6l6.823,19.679a22.483,22.483,0,0,1,.741,12.264,34.273,34.273,0,0,1-4.8,11.571l-16.415,24.722a2.916,2.916,0,0,1-2.473,1.187,3.528,3.528,0,0,1-1.878-.544,3.066,3.066,0,0,1-1.285-1.532l-23.141-67.346h-9.593l26.9,75.95h9.2l28.777-39.655a18.5,18.5,0,0,0,3.213-8.062,18.848,18.848,0,0,0-.741-8.652Z" transform="translate(-2152.037 -1038.286)" fill="#253825"/>
          <path id="Caminho_448" data-name="Caminho 448" d="M2347.666,1114.236h8.307l-33.427-75.95h-1.185l-33.327,75.95h8.9q.493-2.767.99-5.292t1.186-5.24c.461-1.813.99-3.734,1.484-5.784.269-1.119.557-2.2.849-3.251h37.669C2342.793,1103.124,2347.666,1114.236,2347.666,1114.236Zm-45.685-21.464c1.3-4.386,2.638-7.96,3.358-9.886q1.485-3.951,3.609-9.147t4.8-11.372q2.672-6.18,5.736-12.808l15.822,36.295c.461,1.1,1.588,3.708,2.983,6.917Z" transform="translate(-2120.216 -1038.286)" fill="#253825"/>
        </g>
      </g>
      <g id="Grupo_186" data-name="Grupo 186" transform="translate(2007.878 1037.728)">
        <path id="Caminho_449" data-name="Caminho 449" d="M2102.109,1114.194h-9.185l-21.336-70.427q-4.941,19.161-9.582,37.286t-8.79,33.14h-2.864l-21.239-70.427q-1.58,6.124-2.814,11.359t-2.322,10.222q-1.087,4.99-2.075,10.027t-1.925,10.815q-.942,5.779-1.927,12.594t-2.075,15.41h-8.1l19.261-75.86h8.3l18.966,60.352,15.312-60.352h8.3Z" transform="translate(-2007.878 -1036.358)" fill="#253825"/>
        <path id="Caminho_450" data-name="Caminho 450" d="M2071.2,1111.527q9.677-.2,17.978-.988t14.518-1.679q7.212-1.087,13.235-2.469v7.8h-53.534v-75.86h53.534v7.8q-6.023-1.382-13.235-2.469-6.219-.986-14.518-1.778T2071.2,1041v34.671a11.619,11.619,0,0,1,4.148-4.692,12.885,12.885,0,0,1,7.213-1.826,17.187,17.187,0,0,1,2.517.2c.889.132,1.792.3,2.717.494q2.667.593,4.69,1.234t3.654,1.185q1.633.546,2.964.89a9.95,9.95,0,0,0,2.517.346,7.37,7.37,0,0,0,2.965-.641,15.842,15.842,0,0,0,3.361-2.125l1.085.89a29.187,29.187,0,0,1-5.827,4.939,13.565,13.565,0,0,1-7.608,2.272,10.8,10.8,0,0,1-3.951-.693q-4.74-1.382-8-2.32a21.125,21.125,0,0,0-5.729-.938,6.927,6.927,0,0,0-4.544,1.629,5.887,5.887,0,0,0-2.173,4.3Z" transform="translate(-1960.271 -1036.358)" fill="#253825"/>
        <path id="Caminho_451" data-name="Caminho 451" d="M2155.314,1116.093a11.362,11.362,0,0,1-4.541,1.087,9.715,9.715,0,0,1-5.68-1.828,25.843,25.843,0,0,1-5.482-5.58,44.392,44.392,0,0,1-4.791-8.444q-2.223-4.988-4.248-10.816t-3.951-12q-1.925-6.172-4.1-11.9a110.365,110.365,0,0,0-4.642-10.618,36.551,36.551,0,0,0-5.434-8.149,14.908,14.908,0,0,0-1.924-1.778q-1.137-.889-2.322-1.679a14.231,14.231,0,0,0-2.37-1.285,5.568,5.568,0,0,0-2.075-.492c-1.319,0-1.974.856-1.974,2.567q0,19.462.789,32.695t1.679,21.633a140.038,140.038,0,0,0,2.469,15.607h-9.185v-73.589l6.616-3.162a9.856,9.856,0,0,1,4.447-1.087,7.872,7.872,0,0,1,3.16.643,15.5,15.5,0,0,1,3.162,1.926,30.135,30.135,0,0,1,7.26,8.2,81.168,81.168,0,0,1,5.829,11.311q2.616,6.174,4.841,12.889t4.345,13.088q2.123,6.372,4.345,11.8a43.675,43.675,0,0,0,4.791,8.989q.5.591,1.533,1.629a23.858,23.858,0,0,0,2.322,2.025,23.125,23.125,0,0,0,2.567,1.729,4.682,4.682,0,0,0,2.272.741,1.788,1.788,0,0,0,1.434-.643,3.7,3.7,0,0,0,.542-2.322q0-18.766-.741-31.954t-1.63-21.78q-1.087-9.878-2.469-16.3h9.185v74.083Z" transform="translate(-1930.997 -1037.27)" fill="#253825"/>
        <path id="Caminho_452" data-name="Caminho 452" d="M2194.817,1038.334q2.271,10.572,3.852,18.026t2.617,12.594q1.037,5.138,1.631,8.25t.888,4.937c.2,1.22.312,2.123.345,2.718s.05,1.12.05,1.579a29.721,29.721,0,0,1-2.569,12.644,26.116,26.116,0,0,1-7.21,9.334,32.07,32.07,0,0,1-11.16,5.779,49.66,49.66,0,0,1-14.422,1.975A38.274,38.274,0,0,1,2155.6,1114a31.871,31.871,0,0,1-10.075-5.779,24.8,24.8,0,0,1-6.372-8.444,24.115,24.115,0,0,1-2.221-10.174,31.167,31.167,0,0,1,1.038-7.854,27.9,27.9,0,0,1,3.455-7.852,38.21,38.21,0,0,1,6.322-7.506,46.075,46.075,0,0,1,9.533-6.717q2.567-1.68,2.569-2.964a1.854,1.854,0,0,0-.4-1.185L2140,1038.334h11.755l15.013,13.631a3.409,3.409,0,0,1,1.185,2.37,2.159,2.159,0,0,1-.544,1.432,5.635,5.635,0,0,1-1.332,1.137l-7.31,5.037a34.383,34.383,0,0,0-10.471,11.952,29.056,29.056,0,0,0-3.162,12.94,27.663,27.663,0,0,0,1.926,10.224,28.976,28.976,0,0,0,5.187,8.593,25.078,25.078,0,0,0,7.556,5.877,19.774,19.774,0,0,0,9.039,2.173,28.953,28.953,0,0,0,9.876-1.78,30.149,30.149,0,0,0,8.89-4.987,26.134,26.134,0,0,0,6.422-7.655,19.819,19.819,0,0,0,2.469-9.778c0-.262-.017-.593-.05-.988s-.148-1.152-.345-2.272-.494-2.733-.89-4.841-.953-5.019-1.677-8.742-1.648-8.361-2.766-13.926-2.469-12.364-4.05-20.4Z" transform="translate(-1897.206 -1036.358)" fill="#253825"/>
      </g>
    </g>
  </g>
</svg>
