<svg xmlns="http://www.w3.org/2000/svg" width="1322" height="373.794" viewBox="0 0 1322 373.794">
  <g id="Grupo_342" data-name="Grupo 342" transform="translate(-299 -381.206)">
    <g id="Grupo_170" data-name="Grupo 170" transform="translate(652 381.206)">
      <path id="Caminho_417" data-name="Caminho 417" d="M3369.889,1084.439a18.563,18.563,0,0,0-5.861-6.493,26.75,26.75,0,0,0-8.3-3.662,84.324,84.324,0,0,0-9.617-1.905q-4.933-.681-9.667-1.316a45.559,45.559,0,0,1-8.5-1.905,16.363,16.363,0,0,1-6.2-3.612,9.63,9.63,0,0,1-2.733-6.541,13.792,13.792,0,0,1,1.66-8.009,17.53,17.53,0,0,1,5.078-5.515,21.857,21.857,0,0,1,6.884-3.221,26.836,26.836,0,0,1,7.08-1.027,21.434,21.434,0,0,1,13.816,4.736q5.906,4.737,10.4,14.012l7.225-4.4a25.388,25.388,0,0,0-5.371-7.469,31.945,31.945,0,0,0-7.374-5.274,37.387,37.387,0,0,0-8.593-3.173,39.649,39.649,0,0,0-9.129-1.073,37.673,37.673,0,0,0-10.105,1.367,30.545,30.545,0,0,0-8.935,4.053,23.966,23.966,0,0,0-6.689,6.736,21.871,21.871,0,0,0-3.368,9.52,14.8,14.8,0,0,0,1.417,6.786,13.285,13.285,0,0,0,3.758,4.59,20.4,20.4,0,0,0,5.322,2.929,39.815,39.815,0,0,0,6.054,1.757q3.073.637,6,1.025t5.175.782q4.588.88,8.933,1.66a31.847,31.847,0,0,1,7.813,2.393,14.639,14.639,0,0,1,5.565,4.345,11.9,11.9,0,0,1,2.1,7.42,18.322,18.322,0,0,1-1.759,8.3,16.3,16.3,0,0,1-4.685,5.762,20.349,20.349,0,0,1-6.786,3.369,29,29,0,0,1-8.154,1.124,37.2,37.2,0,0,1-9.325-1.221,40.6,40.6,0,0,1-9.031-3.514,36.249,36.249,0,0,1-7.862-5.665,27.225,27.225,0,0,1-5.711-7.665l-1.855.978a35.816,35.816,0,0,0,5.956,9.959,32.98,32.98,0,0,0,8.1,6.884,34.922,34.922,0,0,0,9.666,3.956,43.863,43.863,0,0,0,10.449,1.269,42.891,42.891,0,0,0,9.52-1.174,32.36,32.36,0,0,0,9.52-3.806,23.754,23.754,0,0,0,7.372-6.934,18.041,18.041,0,0,0,2.98-10.545q0-6.54-2.245-10.595m-109.1-2.1a5.833,5.833,0,0,1,2.15-4.248,6.847,6.847,0,0,1,4.491-1.612,20.818,20.818,0,0,1,5.663.929q3.224.928,7.91,2.294a10.678,10.678,0,0,0,3.906.683,13.39,13.39,0,0,0,7.517-2.245,28.768,28.768,0,0,0,5.762-4.881l-1.073-.881a15.52,15.52,0,0,1-3.32,2.1,7.294,7.294,0,0,1-2.93.634,9.835,9.835,0,0,1-2.49-.342q-1.318-.339-2.93-.877t-3.612-1.174c-1.335-.421-2.881-.83-4.639-1.219-.912-.194-1.805-.359-2.684-.488a17.008,17.008,0,0,0-2.49-.2,12.7,12.7,0,0,0-7.129,1.808,11.47,11.47,0,0,0-4.1,4.636v-34.273q9.568.1,17.772.879t14.353,1.758q7.129,1.076,13.086,2.442v-7.714h-52.923v74.99H3306v-7.714q-5.957,1.369-13.086,2.442-6.15.877-14.353,1.66t-17.772.976Zm-72.715-40.132h14.842q9.569,0,15.77,3.027a25.252,25.252,0,0,1,9.763,8.056,30.592,30.592,0,0,1,4.933,11.474,63.761,63.761,0,0,1,1.368,13.28,60.792,60.792,0,0,1-1.514,13.816,29.225,29.225,0,0,1-5.175,11.279,25.084,25.084,0,0,1-9.815,7.566q-6.15,2.785-15.329,2.784h-14.842Zm53.705,20.457a34.552,34.552,0,0,0-7.471-11.864,33.3,33.3,0,0,0-11.619-7.714,40.071,40.071,0,0,0-15.085-2.733H3180.36v74.99H3207.6a38.9,38.9,0,0,0,14.891-2.782,34.008,34.008,0,0,0,19.234-19.627,41.142,41.142,0,0,0,2.687-15.085,42.155,42.155,0,0,0-2.636-15.185m-103.931,51.019a23.7,23.7,0,0,1-16.943-6.981q-7.274-6.98-11.864-19.088a51.1,51.1,0,0,1-2.538-13.33,37.471,37.471,0,0,1,1.415-12.937,29.028,29.028,0,0,1,5.958-10.84,24.157,24.157,0,0,1,10.984-7.03,27.555,27.555,0,0,1,8.886-1.561,23.5,23.5,0,0,1,9.667,2,28.463,28.463,0,0,1,8.154,5.517,39.343,39.343,0,0,1,6.491,8.25,49.848,49.848,0,0,1,4.59,10.107,52.669,52.669,0,0,1,2.638,13.134,39.182,39.182,0,0,1-1.124,12.889,28.243,28.243,0,0,1-5.615,10.937,23.619,23.619,0,0,1-10.937,7.176,29.794,29.794,0,0,1-9.763,1.757m-17.724-71.913a33.276,33.276,0,0,0-11.279,8.933,38.462,38.462,0,0,0-6.736,12.646,47.933,47.933,0,0,0,0,29,38.443,38.443,0,0,0,6.736,12.646,33.3,33.3,0,0,0,11.279,8.934,38.821,38.821,0,0,0,31.637,0,33.807,33.807,0,0,0,11.327-8.934,37.943,37.943,0,0,0,6.785-12.646,47.942,47.942,0,0,0,0-29,37.962,37.962,0,0,0-6.785-12.646,33.781,33.781,0,0,0-11.327-8.933,38.8,38.8,0,0,0-31.637,0m-49.007,73.573v-71.182q6.932.488,12.3,1.172t9.178,1.269q4.394.783,7.715,1.561v-7.811h-66.79v7.811q3.32-.782,7.813-1.561,3.806-.589,9.373-1.269t12.6-1.172v71.182Z" transform="translate(-2755.14 -1038.277)" fill="#e05555"/>
      <path id="Caminho_418" data-name="Caminho 418" d="M3023.086,1038.334h0a51.317,51.317,0,0,1-2.449,15.661l-.121.383-.124-.383a51.367,51.367,0,0,1-2.447-15.661Z" transform="translate(-2768.687 -1038.334)" fill="#e05555"/>
      <path id="Caminho_419" data-name="Caminho 419" d="M3017.945,1062.961h0a51.3,51.3,0,0,1,2.447-15.661l.124-.383.124.383a51.365,51.365,0,0,1,2.447,15.661Z" transform="translate(-2768.687 -1030.871)" fill="#e05555"/>
      <path id="Caminho_420" data-name="Caminho 420" d="M3011.2,1052.712h0a51.272,51.272,0,0,1,14.789-5.71l.392-.086-.269.3a51.4,51.4,0,0,1-12.341,9.952Z" transform="translate(-2774.552 -1030.871)" fill="#e05555"/>
      <path id="Caminho_421" data-name="Caminho 421" d="M3034.5,1045.887h0a51.391,51.391,0,0,1-14.788,5.709l-.393.086.271-.3a51.229,51.229,0,0,1,12.337-9.952Z" transform="translate(-2767.491 -1035.638)" fill="#e05555"/>
      <path id="Caminho_422" data-name="Caminho 422" d="M3013.771,1041.434h0a51.268,51.268,0,0,1,12.339,9.952l.271.3-.392-.086a51.38,51.38,0,0,1-14.789-5.709Z" transform="translate(-2774.552 -1035.638)" fill="#e05555"/>
      <path id="Caminho_423" data-name="Caminho 423" d="M3031.928,1057.165h0a51.314,51.314,0,0,1-12.337-9.952l-.271-.3.393.086a51.257,51.257,0,0,1,14.786,5.71Z" transform="translate(-2767.491 -1030.871)" fill="#e05555"/>
      <path id="Caminho_424" data-name="Caminho 424" d="M2938.517,1092.388a29.771,29.771,0,0,1-5.276,11.494,25.562,25.562,0,0,1-10,7.714q-6.274,2.838-15.628,2.836h-15.127v-72.655h15.127q9.753,0,16.074,3.085a25.737,25.737,0,0,1,9.954,8.211,31.166,31.166,0,0,1,5.026,11.694,65.116,65.116,0,0,1,1.392,13.537,62.032,62.032,0,0,1-1.54,14.083m1.094-41.854a34.015,34.015,0,0,0-11.844-7.863,40.875,40.875,0,0,0-15.377-2.787h-27.769v76.441h27.769a39.67,39.67,0,0,0,15.179-2.836,35.067,35.067,0,0,0,11.892-7.914,35.442,35.442,0,0,0,7.714-12.092,41.971,41.971,0,0,0,2.737-15.377,42.964,42.964,0,0,0-2.687-15.478,35.23,35.23,0,0,0-7.615-12.092" transform="translate(-2884.621 -1036.987)" fill="#e05555"/>
      <rect id="Retângulo_51" data-name="Retângulo 51" width="7.863" height="76.44" transform="translate(78.728 2.896)" fill="#e05555"/>
      <path id="Caminho_425" data-name="Caminho 425" d="M2998.871,1039.884h-8.66l6.867,19.8a22.665,22.665,0,0,1,.748,12.343,34.54,34.54,0,0,1-4.829,11.646l-16.521,24.884a2.932,2.932,0,0,1-2.489,1.193,3.561,3.561,0,0,1-1.892-.548,3.106,3.106,0,0,1-1.292-1.543l-23.291-67.779h-9.655l27.073,76.439h9.257l28.961-39.911a18.607,18.607,0,0,0,3.236-8.112,18.928,18.928,0,0,0-.748-8.71Z" transform="translate(-2838.329 -1036.986)" fill="#e05555"/>
      <path id="Caminho_426" data-name="Caminho 426" d="M2989,1094.723c1.3-4.414,2.651-8.013,3.38-9.952q1.492-3.977,3.631-9.206t4.827-11.445q2.687-6.22,5.773-12.889l15.925,36.528c.462,1.107,1.6,3.734,3,6.964Zm45.978,21.6h8.361l-33.643-76.441H3008.5l-33.54,76.441h8.956q.5-2.785,1-5.325t1.193-5.276c.464-1.824.995-3.758,1.494-5.822.271-1.125.561-2.21.854-3.27h37.913c3.706,8.508,8.609,19.692,8.609,19.692" transform="translate(-2806.062 -1036.987)" fill="#e05555"/>
    </g>
    <text id="linguagem_inclusiva_não_binária" data-name="linguagem inclusiva não binária" transform="translate(299 513)" fill="#e05555" font-size="100" font-family="Monarch"><tspan x="36.7" y="66">LINGUAGEM INCLUSIVA </tspan><tspan x="315.5" y="187">NÃO BINÁRIA</tspan></text>
  </g>
</svg>
