<svg xmlns="http://www.w3.org/2000/svg" width="1084" height="498.385" viewBox="0 0 1084 498.385">
  <g id="Grupo_339" data-name="Grupo 339" transform="translate(-418 -315.615)">
    <text id="prototipar_ideias_alimentar_a_mudança." data-name="prototipar ideias, alimentar a mudança." transform="translate(418 450)" fill="#e05555" font-size="100" font-family="Monarch"><tspan x="8.2" y="66">PROTOTIPAR IDEIAS, </tspan><tspan x="171.15" y="187">ALIMENTAR A </tspan><tspan x="249.05" y="308">MUDANÇA.</tspan></text>
    <g id="Grupo_163" data-name="Grupo 163" transform="translate(516 315.615)">
      <g id="Grupo_161" data-name="Grupo 161">
        <g id="Grupo_159" data-name="Grupo 159" transform="translate(236.65)">
          <g id="Grupo_156" data-name="Grupo 156" transform="translate(12.61)">
            <path id="Caminho_383" data-name="Caminho 383" d="M2690.835,1345.576h0a51.348,51.348,0,0,1-2.448,15.661l-.123.383-.124-.383a51.348,51.348,0,0,1-2.447-15.661h5.141Z" transform="translate(-2685.694 -1345.576)" fill="#e05555"/>
            <path id="Caminho_384" data-name="Caminho 384" d="M2685.694,1370.2h0a51.365,51.365,0,0,1,2.447-15.661l.124-.384.123.384a51.365,51.365,0,0,1,2.448,15.661h-5.141Z" transform="translate(-2685.694 -1338.114)" fill="#e05555"/>
          </g>
          <g id="Grupo_157" data-name="Grupo 157" transform="translate(0 5.796)">
            <path id="Caminho_385" data-name="Caminho 385" d="M2678.949,1359.954h0a51.361,51.361,0,0,1,14.788-5.71l.393-.086-.269.3a51.334,51.334,0,0,1-12.342,9.952h0Z" transform="translate(-2678.949 -1343.909)" fill="#e05555"/>
            <path id="Caminho_386" data-name="Caminho 386" d="M2702.25,1353.129h0a51.35,51.35,0,0,1-14.788,5.712l-.393.084.271-.3a51.332,51.332,0,0,1,12.338-9.952h0Z" transform="translate(-2671.888 -1348.676)" fill="#e05555"/>
          </g>
          <g id="Grupo_158" data-name="Grupo 158" transform="translate(0 5.796)">
            <path id="Caminho_387" data-name="Caminho 387" d="M2681.52,1348.676h0a51.381,51.381,0,0,1,12.342,9.952l.269.3-.393-.084a51.362,51.362,0,0,1-14.788-5.712h0Z" transform="translate(-2678.949 -1348.676)" fill="#e05555"/>
            <path id="Caminho_388" data-name="Caminho 388" d="M2699.679,1364.407h0a51.285,51.285,0,0,1-12.338-9.952l-.271-.3.393.086a51.349,51.349,0,0,1,14.788,5.71h0Z" transform="translate(-2671.888 -1343.909)" fill="#e05555"/>
          </g>
        </g>
        <g id="Grupo_160" data-name="Grupo 160" transform="translate(0 2.898)">
          <path id="Caminho_389" data-name="Caminho 389" d="M2607.359,1357.775a33.969,33.969,0,0,0-11.844-7.862,40.845,40.845,0,0,0-15.377-2.787h-27.769v76.441h27.769a39.621,39.621,0,0,0,15.179-2.838,35.078,35.078,0,0,0,11.894-7.912,35.453,35.453,0,0,0,7.712-12.092,41.973,41.973,0,0,0,2.739-15.377,42.956,42.956,0,0,0-2.689-15.478A35.219,35.219,0,0,0,2607.359,1357.775Zm-1.094,41.854a29.784,29.784,0,0,1-5.276,11.5,25.569,25.569,0,0,1-10,7.714q-6.271,2.835-15.626,2.836h-15.129v-72.657h15.129q9.754,0,16.074,3.085a25.737,25.737,0,0,1,9.952,8.213,31.207,31.207,0,0,1,5.028,11.694,65.2,65.2,0,0,1,1.392,13.536A61.909,61.909,0,0,1,2606.265,1399.629Z" transform="translate(-2552.369 -1347.126)" fill="#e05555"/>
          <rect id="Retângulo_49" data-name="Retângulo 49" width="7.863" height="76.44" transform="translate(78.729)" fill="#e05555"/>
          <path id="Caminho_390" data-name="Caminho 390" d="M2666.617,1347.126h-8.658l6.867,19.806a22.643,22.643,0,0,1,.746,12.343,34.538,34.538,0,0,1-4.827,11.646l-16.522,24.882a2.934,2.934,0,0,1-2.488,1.195,3.562,3.562,0,0,1-1.892-.548,3.11,3.11,0,0,1-1.294-1.542l-23.289-67.781h-9.655l27.072,76.441h9.258l28.963-39.913a18.6,18.6,0,0,0,3.234-8.112,18.948,18.948,0,0,0-.748-8.708Z" transform="translate(-2506.075 -1347.126)" fill="#e05555"/>
          <path id="Caminho_391" data-name="Caminho 391" d="M2702.73,1423.567h8.361l-33.643-76.441h-1.192l-33.542,76.441h8.957q.5-2.785,1-5.326t1.193-5.274c.464-1.825.994-3.758,1.494-5.822.271-1.126.561-2.21.854-3.272h37.913C2697.826,1412.383,2702.73,1423.567,2702.73,1423.567Zm-45.98-21.6c1.306-4.414,2.653-8.011,3.381-9.95q1.495-3.979,3.632-9.206t4.827-11.446q2.689-6.22,5.773-12.891l15.925,36.53c.462,1.1,1.6,3.731,3,6.962Z" transform="translate(-2473.809 -1347.126)" fill="#e05555"/>
        </g>
      </g>
      <g id="Grupo_162" data-name="Grupo 162" transform="translate(279.992 0.852)">
        <path id="Caminho_392" data-name="Caminho 392" d="M2766.853,1403.6a18.386,18.386,0,0,1-3.032,10.737,24.2,24.2,0,0,1-7.506,7.06,32.982,32.982,0,0,1-9.692,3.876,43.628,43.628,0,0,1-9.693,1.195,44.6,44.6,0,0,1-10.638-1.294,35.536,35.536,0,0,1-9.841-4.025,33.612,33.612,0,0,1-8.252-7.009,36.462,36.462,0,0,1-6.065-10.141l1.889-.995a27.7,27.7,0,0,0,5.816,7.806,36.965,36.965,0,0,0,8.005,5.766,41.273,41.273,0,0,0,9.194,3.578,37.942,37.942,0,0,0,9.494,1.243,29.528,29.528,0,0,0,8.3-1.144,20.786,20.786,0,0,0,6.912-3.429,16.671,16.671,0,0,0,4.771-5.867,18.709,18.709,0,0,0,1.789-8.451,12.119,12.119,0,0,0-2.139-7.557,14.942,14.942,0,0,0-5.667-4.423,32.522,32.522,0,0,0-7.951-2.436q-4.429-.794-9.1-1.688-2.286-.4-5.269-.8t-6.113-1.043a40.559,40.559,0,0,1-6.162-1.789,20.9,20.9,0,0,1-5.42-2.982,13.574,13.574,0,0,1-3.827-4.674,15.09,15.09,0,0,1-1.442-6.908,22.275,22.275,0,0,1,3.429-9.694,24.4,24.4,0,0,1,6.809-6.859,31.213,31.213,0,0,1,9.1-4.126,38.337,38.337,0,0,1,10.286-1.391,40.258,40.258,0,0,1,9.3,1.094,38.053,38.053,0,0,1,8.749,3.229,32.39,32.39,0,0,1,7.5,5.371,25.736,25.736,0,0,1,5.468,7.6l-7.357,4.474q-4.573-9.445-10.587-14.265a21.827,21.827,0,0,0-14.069-4.824,27.4,27.4,0,0,0-7.207,1.045,22.277,22.277,0,0,0-7.007,3.279,17.849,17.849,0,0,0-5.171,5.618,14.02,14.02,0,0,0-1.69,8.151,9.8,9.8,0,0,0,2.784,6.661,16.614,16.614,0,0,0,6.313,3.679,46.487,46.487,0,0,0,8.648,1.939q4.822.645,9.844,1.34a85.274,85.274,0,0,1,9.79,1.939,27.237,27.237,0,0,1,8.451,3.73,18.866,18.866,0,0,1,5.966,6.611Q2766.849,1396.939,2766.853,1403.6Z" transform="translate(-2702.132 -1345.94)" fill="#e05555"/>
        <path id="Caminho_393" data-name="Caminho 393" d="M2777.156,1346.032a35.944,35.944,0,0,1,16.155,3.427,34.421,34.421,0,0,1,11.532,9.1,38.681,38.681,0,0,1,6.912,12.872,48.806,48.806,0,0,1,0,29.526,38.645,38.645,0,0,1-6.912,12.875,34.389,34.389,0,0,1-11.532,9.1,39.52,39.52,0,0,1-32.211,0,33.843,33.843,0,0,1-11.482-9.1,39.021,39.021,0,0,1-6.858-12.875,48.762,48.762,0,0,1,0-29.526,39.058,39.058,0,0,1,6.858-12.872,33.874,33.874,0,0,1,11.482-9.1A35.7,35.7,0,0,1,2777.156,1346.032Zm11.93,74.859a24.024,24.024,0,0,0,11.133-7.308,28.8,28.8,0,0,0,5.719-11.135,39.866,39.866,0,0,0,1.142-13.123,53.7,53.7,0,0,0-2.683-13.371,51.029,51.029,0,0,0-4.674-10.29,40.166,40.166,0,0,0-6.611-8.4,29,29,0,0,0-8.3-5.618,23.951,23.951,0,0,0-9.841-2.036,28.065,28.065,0,0,0-9.047,1.589,24.63,24.63,0,0,0-11.184,7.159,29.5,29.5,0,0,0-6.063,11.036,38.117,38.117,0,0,0-1.443,13.171,51.871,51.871,0,0,0,2.586,13.569q4.672,12.331,12.079,19.438a24.135,24.135,0,0,0,17.251,7.108A30.4,30.4,0,0,0,2789.086,1420.891Z" transform="translate(-2668.794 -1346.032)" fill="#e05555"/>
        <path id="Caminho_394" data-name="Caminho 394" d="M2792.727,1419.47q9.736-.2,17.942-.748t14.267-1.34q7.061-.794,12.825-1.789v7.854h-52.888v-76.351h7.854Z" transform="translate(-2630.183 -1345.108)" fill="#e05555"/>
        <path id="Caminho_395" data-name="Caminho 395" d="M2875.406,1347.095q2.286,10.64,3.877,18.142t2.634,12.676q1.047,5.171,1.642,8.3t.9,4.969c.2,1.227.314,2.139.346,2.735s.052,1.126.052,1.589a29.94,29.94,0,0,1-2.586,12.726,26.347,26.347,0,0,1-7.26,9.395,32.24,32.24,0,0,1-11.232,5.816,49.965,49.965,0,0,1-14.514,1.987,38.473,38.473,0,0,1-13.324-2.187,32.1,32.1,0,0,1-10.141-5.816,25.021,25.021,0,0,1-6.413-8.5,24.28,24.28,0,0,1-2.234-10.24,31.283,31.283,0,0,1,1.045-7.9,27.986,27.986,0,0,1,3.476-7.9,38.6,38.6,0,0,1,6.364-7.555,46.492,46.492,0,0,1,9.593-6.762q2.585-1.688,2.586-2.98a1.865,1.865,0,0,0-.4-1.194l-19.583-17.3h11.83l15.112,13.719a3.438,3.438,0,0,1,1.193,2.385,2.184,2.184,0,0,1-.548,1.441,5.705,5.705,0,0,1-1.344,1.144l-7.353,5.07q-7.361,5.566-10.539,12.029a29.225,29.225,0,0,0-3.184,13.023,27.825,27.825,0,0,0,1.939,10.288,29.144,29.144,0,0,0,5.222,8.65,25.259,25.259,0,0,0,7.6,5.916,19.9,19.9,0,0,0,9.1,2.185,29.136,29.136,0,0,0,9.939-1.789,30.368,30.368,0,0,0,8.949-5.018,26.372,26.372,0,0,0,6.459-7.7,19.923,19.923,0,0,0,2.487-9.843q0-.4-.051-.995c-.034-.4-.15-1.157-.348-2.286s-.5-2.75-.894-4.87-.961-5.055-1.69-8.8-1.658-8.415-2.784-14.018-2.486-12.442-4.074-20.528Z" transform="translate(-2602.116 -1345.108)" fill="#e05555"/>
        <path id="Caminho_396" data-name="Caminho 396" d="M2886.343,1423.446V1350.97q-7.159.5-12.829,1.195t-9.54,1.292q-4.573.8-7.953,1.591v-7.953h68v7.953q-3.379-.794-7.854-1.591-3.879-.6-9.344-1.292t-12.525-1.195v72.476Z" transform="translate(-2568.315 -1345.108)" fill="#e05555"/>
        <path id="Caminho_397" data-name="Caminho 397" d="M2906.1,1423.446h-7.854v-76.351h7.854Z" transform="translate(-2531.602 -1345.108)" fill="#e05555"/>
        <path id="Caminho_398" data-name="Caminho 398" d="M2945.772,1346.032a35.96,35.96,0,0,1,16.159,3.427,34.394,34.394,0,0,1,11.531,9.1,38.682,38.682,0,0,1,6.908,12.872,48.806,48.806,0,0,1,0,29.526,38.645,38.645,0,0,1-6.908,12.875,34.362,34.362,0,0,1-11.531,9.1,39.525,39.525,0,0,1-32.213,0,33.825,33.825,0,0,1-11.481-9.1,39.1,39.1,0,0,1-6.861-12.875,48.806,48.806,0,0,1,0-29.526,39.142,39.142,0,0,1,6.861-12.872,33.857,33.857,0,0,1,11.481-9.1A35.7,35.7,0,0,1,2945.772,1346.032Zm11.934,74.859a24.066,24.066,0,0,0,11.133-7.308,28.733,28.733,0,0,0,5.715-11.135,39.775,39.775,0,0,0,1.143-13.123,53.568,53.568,0,0,0-2.683-13.371,50.75,50.75,0,0,0-4.67-10.29,40.22,40.22,0,0,0-6.612-8.4,28.989,28.989,0,0,0-8.3-5.618,23.964,23.964,0,0,0-9.843-2.036,28.064,28.064,0,0,0-9.045,1.589,24.608,24.608,0,0,0-11.185,7.159,29.524,29.524,0,0,0-6.065,11.036,38.194,38.194,0,0,0-1.442,13.171,52.13,52.13,0,0,0,2.584,13.569q4.672,12.331,12.08,19.438a24.137,24.137,0,0,0,17.25,7.108A30.414,30.414,0,0,0,2957.705,1420.891Z" transform="translate(-2522.169 -1346.032)" fill="#e05555"/>
        <path id="Caminho_399" data-name="Caminho 399" d="M3011.383,1425.363a11.45,11.45,0,0,1-4.573,1.094,9.775,9.775,0,0,1-5.713-1.838,26.043,26.043,0,0,1-5.519-5.618,44.652,44.652,0,0,1-4.823-8.5q-2.235-5.02-4.276-10.887t-3.976-12.079q-1.938-6.212-4.126-11.98a111.592,111.592,0,0,0-4.67-10.686,36.648,36.648,0,0,0-5.47-8.2,14.71,14.71,0,0,0-1.935-1.789q-1.144-.9-2.337-1.69a14.087,14.087,0,0,0-2.387-1.294,5.564,5.564,0,0,0-2.084-.5q-1.994,0-1.991,2.584,0,19.588.8,32.906t1.69,21.773a141,141,0,0,0,2.482,15.708h-9.244v-74.064l6.661-3.182a9.917,9.917,0,0,1,4.475-1.092,7.92,7.92,0,0,1,3.18.645,15.631,15.631,0,0,1,3.182,1.937,30.414,30.414,0,0,1,7.306,8.252,81.721,81.721,0,0,1,5.866,11.384q2.632,6.214,4.873,12.975t4.374,13.173q2.134,6.411,4.372,11.879a43.905,43.905,0,0,0,4.823,9.047q.5.595,1.541,1.64a23.987,23.987,0,0,0,2.337,2.038,22.827,22.827,0,0,0,2.585,1.739,4.685,4.685,0,0,0,2.285.748,1.8,1.8,0,0,0,1.444-.647,3.738,3.738,0,0,0,.544-2.337q0-18.887-.746-32.16t-1.639-21.922q-1.094-9.939-2.487-16.4h9.247v74.563Z" transform="translate(-2483.791 -1346.032)" fill="#e05555"/>
        <path id="Caminho_400" data-name="Caminho 400" d="M3057.611,1403.6a18.4,18.4,0,0,1-3.031,10.737,24.212,24.212,0,0,1-7.506,7.06,32.958,32.958,0,0,1-9.692,3.876,43.639,43.639,0,0,1-9.7,1.195,44.58,44.58,0,0,1-10.636-1.294,35.539,35.539,0,0,1-9.842-4.025,33.622,33.622,0,0,1-8.252-7.009,36.478,36.478,0,0,1-6.064-10.141l1.892-.995a27.743,27.743,0,0,0,5.813,7.806,37.02,37.02,0,0,0,8,5.766,41.37,41.37,0,0,0,9.194,3.578,37.988,37.988,0,0,0,9.5,1.243,29.53,29.53,0,0,0,8.3-1.144,20.726,20.726,0,0,0,6.908-3.429,16.645,16.645,0,0,0,4.773-5.867,18.661,18.661,0,0,0,1.789-8.451,12.119,12.119,0,0,0-2.137-7.557,14.955,14.955,0,0,0-5.667-4.423,32.611,32.611,0,0,0-7.953-2.436q-4.426-.794-9.1-1.688-2.284-.4-5.269-.8t-6.114-1.043a40.688,40.688,0,0,1-6.163-1.789,20.853,20.853,0,0,1-5.418-2.982,13.586,13.586,0,0,1-3.827-4.674,15.1,15.1,0,0,1-1.441-6.908,22.254,22.254,0,0,1,3.43-9.694,24.383,24.383,0,0,1,6.811-6.859,31.18,31.18,0,0,1,9.1-4.126,38.323,38.323,0,0,1,10.29-1.391,40.235,40.235,0,0,1,9.293,1.094,38.033,38.033,0,0,1,8.75,3.229,32.477,32.477,0,0,1,7.506,5.371,25.749,25.749,0,0,1,5.467,7.6l-7.357,4.474q-4.574-9.445-10.588-14.265a21.819,21.819,0,0,0-14.068-4.824,27.4,27.4,0,0,0-7.208,1.045,22.33,22.33,0,0,0-7.009,3.279,17.866,17.866,0,0,0-5.169,5.618,14.028,14.028,0,0,0-1.69,8.151,9.8,9.8,0,0,0,2.786,6.661,16.6,16.6,0,0,0,6.313,3.679,46.474,46.474,0,0,0,8.646,1.939q4.821.645,9.844,1.34a85.365,85.365,0,0,1,9.791,1.939,27.251,27.251,0,0,1,8.453,3.73,18.883,18.883,0,0,1,5.964,6.611Q3057.614,1396.939,3057.611,1403.6Z" transform="translate(-2449.297 -1345.94)" fill="#e05555"/>
      </g>
    </g>
  </g>
</svg>
